<?xml version="1.0" encoding="UTF-8" standalone="no"?>
<!-- Created with Inkscape (http://www.inkscape.org/) -->

<svg
   width="210mm"
   height="297mm"
   viewBox="0 0 210 297"
   version="1.1"
   id="svg5"
   sodipodi:docname="tank_grey.svg"
   inkscape:version="1.1.2 (0a00cf5339, 2022-02-04)"
   xmlns:inkscape="http://www.inkscape.org/namespaces/inkscape"
   xmlns:sodipodi="http://sodipodi.sourceforge.net/DTD/sodipodi-0.dtd"
   xmlns="http://www.w3.org/2000/svg"
   xmlns:svg="http://www.w3.org/2000/svg">
  <sodipodi:namedview
     id="namedview7"
     pagecolor="#ffffff"
     bordercolor="#666666"
     borderopacity="1.0"
     inkscape:pageshadow="2"
     inkscape:pageopacity="0.0"
     inkscape:pagecheckerboard="0"
     inkscape:document-units="mm"
     showgrid="false"
     inkscape:zoom="0.64052329"
     inkscape:cx="387.18342"
     inkscape:cy="561.25984"
     inkscape:window-width="1920"
     inkscape:window-height="1022"
     inkscape:window-x="1920"
     inkscape:window-y="0"
     inkscape:window-maximized="1"
     inkscape:current-layer="layer1" />
  <defs
     id="defs2" />
  <g
     inkscape:label="Layer 1"
     inkscape:groupmode="layer"
     id="layer1">
    <g
       id="g1000"
       transform="matrix(0.73971719,0,0,0.42165197,-10.079374,99.629921)"
       inkscape:export-filename="/home/matthew/projects/unshackle.me/images/tank_red.png"
       inkscape:export-xdpi="96.000038"
       inkscape:export-ydpi="96.000038">
      <path
         style="fill:#b9b9b9;fill-opacity:1;stroke-width:0.352778"
         d="m 107.17957,94.632039 c -0.32891,-0.132722 -0.44097,-1.728085 -0.44097,-6.278252 0,-5.741019 0.052,-6.217846 0.88248,-8.09577 0.48537,-1.0975 1.12037,-2.086737 1.41112,-2.198307 0.75437,-0.289481 0.69891,-3.527578 -0.0838,-4.889867 -0.51516,-0.896659 -0.62616,-2.274814 -0.72665,-9.021524 -0.0935,-6.274466 -0.0202,-8.040461 0.34563,-8.327556 0.25533,-0.200401 1.24487,-0.555003 2.19897,-0.788004 1.69636,-0.41427 1.75285,-0.401741 2.55381,0.566444 0.45049,0.544547 0.91293,1.32952 1.02764,1.744386 0.26383,0.954223 3.18466,3.079925 3.8704,2.816781 0.41854,-0.160609 0.5148,-1.156132 0.5148,-5.323899 v -5.12635 h 0.88195 0.88194 v 5.12635 c 0,4.167767 0.0963,5.16329 0.51481,5.323899 0.68574,0.263144 3.60656,-1.862558 3.8704,-2.816781 0.11471,-0.414866 0.57715,-1.199839 1.02764,-1.744386 0.80096,-0.968185 0.85744,-0.980714 2.55381,-0.566444 0.9541,0.233001 1.93317,0.578915 2.1757,0.768696 0.329,0.257435 0.43901,2.282525 0.43323,7.974779 -0.007,6.837922 -0.0802,7.789314 -0.70556,9.167551 -0.84672,1.866012 -0.94436,4.818461 -0.16918,5.115925 0.29075,0.11157 0.92575,1.100807 1.41111,2.198307 0.82641,1.868646 0.88249,2.369289 0.88249,7.878223 0,4.105116 -0.12792,6.010695 -0.42334,6.306104 -0.6187,0.618708 -5.37371,0.560433 -5.89883,-0.0723 -0.22623,-0.272595 -1.45479,-0.677337 -2.73012,-0.899428 -1.98562,-0.345779 -2.40559,-0.325254 -2.92284,0.14285 -0.76182,0.689441 -1.04497,0.685574 -1.83015,-0.02501 -0.55499,-0.502257 -0.91022,-0.519095 -2.92629,-0.138687 -1.26204,0.238128 -2.47816,0.654124 -2.7025,0.924429 -0.40043,0.482498 -4.83851,0.677178 -5.87774,0.257838 z M 119.69868,63.38026 c -0.0713,-1.018646 -0.12956,-0.185208 -0.12956,1.852083 0,2.037292 0.0583,2.87073 0.12956,1.852084 0.0713,-1.018646 0.0713,-2.685521 0,-3.704167 z m -5.96623,2.170773 c -0.082,-2.091835 -0.64385,-2.062086 -0.64385,0.03409 0,1.102571 0.13607,1.72143 0.3495,1.589525 0.19223,-0.118803 0.32468,-0.849428 0.29435,-1.623613 z m 15.23115,0.698499 c 0,-0.524141 -0.26067,-0.664411 -1.23472,-0.664411 -1.29266,0 -1.52109,-0.278082 -0.81139,-0.987778 0.32926,-0.329259 0.25086,-0.423333 -0.35278,-0.423333 -0.59267,0 -0.77611,0.20846 -0.77611,0.881944 0,0.772752 0.15287,0.881945 1.23472,0.881945 0.6791,0 1.23472,0.15875 1.23472,0.352778 0,0.194027 -0.15875,0.352778 -0.35277,0.352778 -0.19403,0 -0.35278,0.143887 -0.35278,0.31975 0,0.175863 0.3175,0.236723 0.70555,0.135244 0.3905,-0.102117 0.70556,-0.481194 0.70556,-0.848917 z m -18.44826,-1.458161 c -0.0841,-0.436562 -0.15288,-0.07937 -0.15288,0.79375 0,0.873125 0.0688,1.230313 0.15288,0.79375 0.0841,-0.436562 0.0841,-1.150937 0,-1.5875 z m 16.4265,1.973461 c -0.23884,-0.09663 -0.71509,-0.102516 -1.05833,-0.01307 -0.34324,0.08944 -0.14783,0.168507 0.43426,0.175697 0.58208,0.0072 0.86291,-0.06599 0.62407,-0.162627 z m -15.01848,-1.446967 c -0.52328,-0.523287 -0.95143,-0.786535 -0.95143,-0.584996 0,0.516977 1.43806,2.001233 1.69246,1.746831 0.11572,-0.115722 -0.21774,-0.638548 -0.74103,-1.161835 z m 16.77566,-1.024715 c -0.24254,-0.09786 -0.63941,-0.09786 -0.88195,0 -0.24253,0.09786 -0.0441,0.177936 0.44097,0.177936 0.48507,0 0.68351,-0.08007 0.44098,-0.177936 z m -16.66875,-2.941362 c 0,-0.753209 -0.15875,-1.467584 -0.35278,-1.5875 -0.21763,-0.134505 -0.35278,0.473647 -0.35278,1.5875 0,1.113853 0.13515,1.722004 0.35278,1.5875 0.19403,-0.119916 0.35278,-0.834291 0.35278,-1.5875 z m 15.39744,1.300705 c 0.1333,-0.133305 -0.0222,-0.242372 -0.34559,-0.242372 -1.21842,0 -0.53002,-0.707748 0.73495,-0.755616 l 1.32292,-0.05006 -1.3346,-0.214522 c -0.73403,-0.117987 -1.32934,-0.373272 -1.32292,-0.5673 0.006,-0.194028 0.15721,-0.352778 0.33507,-0.352778 0.17785,0 0.44244,-0.119062 0.58796,-0.264583 0.14552,-0.145521 -0.15875,-0.264583 -0.67616,-0.264583 -0.87439,0 -0.94074,0.107806 -0.94074,1.528544 0,1.305442 0.10193,1.521034 0.69837,1.477094 0.3841,-0.0283 0.80744,-0.160518 0.94074,-0.293822 z m 1.3595,0.110406 c 0.11992,-0.194028 -0.0388,-0.352778 -0.35278,-0.352778 -0.31394,0 -0.47269,0.15875 -0.35277,0.352778 0.11991,0.194028 0.27866,0.352778 0.35277,0.352778 0.0741,0 0.23287,-0.15875 0.35278,-0.352778 z M 110.97193,62.60733 c 0,-0.08556 -0.15875,-0.253682 -0.35277,-0.373598 -0.19403,-0.119916 -0.35278,-0.04991 -0.35278,0.155569 0,0.205479 0.15875,0.373598 0.35278,0.373598 0.19402,0 0.35277,-0.07001 0.35277,-0.155569 z m 2.46945,0 c 0,-0.372348 -0.67702,-0.528783 -0.87839,-0.202963 -0.12187,0.197193 0.0259,0.358532 0.3284,0.358532 0.30249,0 0.54999,-0.07001 0.54999,-0.155569 z m 6.25653,-6.106237 c -0.0727,-0.921632 -0.13213,-0.167569 -0.13213,1.675695 0,1.843264 0.0594,2.597326 0.13213,1.675694 0.0727,-0.921632 0.0727,-2.429757 0,-3.351389 z m 9.61847,3.578229 c 0,-0.07625 -0.32687,-0.138645 -0.72638,-0.138645 -0.3995,0 -0.63254,0.151817 -0.51787,0.33737 0.18825,0.30459 1.24425,0.135931 1.24425,-0.198725 z"
         id="path1014" />
      <path
         style="fill:#a3a3a3;fill-opacity:1;stroke-width:0.352778"
         d="m 107.61699,94.507145 c -0.12187,-0.197192 -0.36937,-0.267201 -0.54999,-0.155568 -0.19789,0.122298 -0.3284,-2.241408 -0.3284,-5.947572 0,-5.794593 0.0511,-6.266016 0.88248,-8.145988 0.48537,-1.0975 1.12037,-2.086737 1.41112,-2.198307 0.78256,-0.300299 0.71903,-3.934692 -0.0887,-5.075955 -0.53036,-0.74932 -0.63346,-1.910701 -0.73163,-8.240866 -0.0629,-4.052741 -0.0211,-7.739843 0.0928,-8.19356 0.16088,-0.640996 0.65106,-0.954019 2.19834,-1.403826 1.98864,-0.578113 1.9922,-0.577772 2.66399,0.25606 0.36998,0.459221 0.89089,1.322573 1.15757,1.91856 0.57441,1.283711 3.10135,3.144312 3.86986,2.849405 0.44885,-0.172239 0.53867,-1.061532 0.53867,-5.333057 v -5.12635 h 0.88195 0.88194 v 5.12635 c 0,5.816729 0.19023,6.202864 2.27312,4.614164 0.66417,-0.506588 1.37693,-0.921069 1.5839,-0.921069 0.20697,0 0.37632,-0.287566 0.37632,-0.639036 0,-0.351469 0.3175,-0.979831 0.70555,-1.39636 0.38806,-0.416529 0.70556,-0.913344 0.70556,-1.104034 0,-0.19069 0.14748,-0.437857 0.32773,-0.549261 0.38144,-0.235738 3.52217,0.502722 4.17018,0.980505 0.3296,0.243013 0.43902,2.252187 0.43323,7.954854 -0.007,6.837922 -0.0802,7.789314 -0.70556,9.167551 -0.84672,1.866012 -0.94436,4.818461 -0.16918,5.115925 0.29075,0.11157 0.92575,1.100807 1.41111,2.198307 0.82641,1.868646 0.88249,2.369289 0.88249,7.878223 0,4.105116 -0.12792,6.010695 -0.42334,6.306104 -0.61441,0.614419 -5.44291,0.56794 -5.68183,-0.0547 -0.10089,-0.262915 -0.79257,-0.585354 -1.53705,-0.716534 -3.10806,-0.547642 -4.35223,-0.630869 -4.35223,-0.291137 0,0.648529 -1.15313,0.803702 -1.77699,0.23912 -0.45825,-0.414715 -1.01142,-0.501643 -2.15384,-0.338466 -0.84547,0.120763 -1.8092,0.258795 -2.14162,0.306734 -0.33242,0.04794 -0.90054,0.355169 -1.2625,0.682737 -0.74583,0.674967 -5.15777,0.863572 -5.54499,0.237042 z m 12.52717,-4.580357 c 0,-0.194028 -0.16812,-0.352778 -0.3736,-0.352778 -0.20548,0 -0.27549,0.15875 -0.15557,0.352778 0.11991,0.194028 0.28803,0.352778 0.3736,0.352778 0.0856,0 0.15557,-0.15875 0.15557,-0.352778 z m -4.34164,-6.607869 c -0.0894,-0.343242 -0.16851,-0.147825 -0.1757,0.434258 -0.007,0.582083 0.066,0.862917 0.16262,0.624075 0.0966,-0.238842 0.10252,-0.715092 0.0131,-1.058333 z m -1.76389,-0.352778 c -0.0894,-0.343242 -0.16851,-0.147825 -0.1757,0.434258 -0.007,0.582083 0.066,0.862917 0.16263,0.624075 0.0966,-0.238842 0.10251,-0.715092 0.0131,-1.058333 z m 9.51416,-0.183103 c -0.0979,-0.242535 -0.17793,-0.0441 -0.17793,0.440972 0,0.48507 0.0801,0.683507 0.17793,0.440972 0.0979,-0.242534 0.0979,-0.639409 0,-0.881944 z m 1.88303,-0.739074 c 0,-0.06694 -0.35719,-0.424129 -0.79375,-0.79375 l -0.79375,-0.672037 0.67204,0.79375 c 0.63155,0.745929 0.91546,0.954349 0.91546,0.672037 z m -10.69164,-1.547268 c -0.0894,-0.343241 -0.16851,-0.147825 -0.1757,0.434259 -0.007,0.582083 0.066,0.862917 0.16263,0.624075 0.0966,-0.238842 0.10252,-0.715092 0.0131,-1.058334 z m 8.81945,0 c -0.0894,-0.343241 -0.16851,-0.147825 -0.1757,0.434259 -0.007,0.582083 0.066,0.862917 0.16263,0.624075 0.0966,-0.238842 0.10251,-0.715092 0.0131,-1.058334 z M 119.87136,64.26141 c 0.053,-1.407139 -0.0226,-2.558076 -0.16818,-2.557639 -0.14552,4.23e-4 -0.23789,1.707357 -0.20528,3.793156 0.0602,3.852236 0.19906,3.392989 0.37346,-1.235517 z m -9.2522,1.47928 c 0,-0.98238 -0.1373,-1.523465 -0.35278,-1.390291 -0.60696,0.375121 -0.4012,2.998611 0.23518,2.998611 0.0647,0 0.1176,-0.723744 0.1176,-1.60832 z m 3.175,-0.155569 c 0,-0.753209 -0.15875,-1.467584 -0.35278,-1.5875 -0.21763,-0.134505 -0.35278,0.473647 -0.35278,1.5875 0,1.113853 0.13515,1.722005 0.35278,1.5875 0.19403,-0.119916 0.35278,-0.834291 0.35278,-1.5875 z m 13.22916,1.411111 c 0.12583,-0.203588 -0.20104,-0.350493 -0.77293,-0.347375 -0.76944,0.0042 -0.87267,0.08184 -0.46179,0.347375 0.67779,0.43802 0.96401,0.43802 1.23472,0 z m 1.93611,0 c 0.15999,0 0.20787,-0.3175 0.10639,-0.705555 -0.13865,-0.530176 -0.4812,-0.705556 -1.37809,-0.705556 -1.25404,0 -1.47485,-0.283172 -0.77024,-0.987778 0.32926,-0.329259 0.21845,-0.423333 -0.49866,-0.423333 -0.83397,0 -0.89704,0.09262 -0.66068,0.970139 0.21708,0.805954 0.45073,0.966846 1.3806,0.950685 0.61561,-0.0107 1.11929,0.108363 1.11929,0.264584 0,0.15622 -0.15875,0.284037 -0.35277,0.284037 -0.19403,0 -0.35278,0.175734 -0.35278,0.390521 0,0.214786 0.25111,0.294161 0.55802,0.176389 0.30691,-0.117773 0.68892,-0.214133 0.84892,-0.214133 z m -16.98971,-1.746404 c -1.10235,-0.898577 -1.28714,-0.195204 -0.24184,0.920556 0.67917,0.724949 0.85278,0.78328 0.9474,0.318304 0.0637,-0.313117 -0.25379,-0.870604 -0.70556,-1.23886 z m 5.5286,0.335293 c -0.11991,-0.194028 -0.0405,-0.352778 0.17639,-0.352778 0.21693,0 0.29471,-0.161339 0.17283,-0.358532 -0.12187,-0.197192 -0.36936,-0.267199 -0.54998,-0.155569 -0.45041,0.278365 -0.41552,1.219657 0.0452,1.219657 0.20548,0 0.27549,-0.15875 0.15557,-0.352778 z m 5.66626,-0.624944 c -0.11825,-0.118252 -0.48903,0.07191 -0.82396,0.422569 -0.58216,0.609513 -0.5727,0.618975 0.215,0.215003 0.45318,-0.232414 0.72721,-0.519321 0.60896,-0.637572 z m -1.25654,-0.08061 c 0,-0.194028 -0.07,-0.352778 -0.15556,-0.352778 -0.0856,0 -0.25369,0.15875 -0.3736,0.352778 -0.11992,0.194027 -0.0499,0.352777 0.15557,0.352777 0.20548,0 0.37359,-0.15875 0.37359,-0.352777 z m 7.23195,-0.352778 c 0.12366,-0.200081 -0.17273,-0.352778 -0.68474,-0.352778 -0.49652,0 -0.90276,0.15875 -0.90276,0.352778 0,0.194028 0.30813,0.352778 0.68473,0.352778 0.37661,0 0.78285,-0.15875 0.90277,-0.352778 z m -5.0936,-1.221322 c 0.18211,0.112545 0.3311,-0.06747 0.3311,-0.400035 0,-0.559746 -0.0524,-0.557231 -0.70556,0.03386 -0.38805,0.351185 -0.70072,0.812352 -0.69482,1.024815 0.006,0.212463 0.1744,0.105144 0.37446,-0.238485 0.20005,-0.343629 0.51272,-0.532698 0.69482,-0.420152 z m -8.48835,0.0074 c 0,-0.08556 -0.15875,-0.253681 -0.35277,-0.373597 -0.19403,-0.119916 -0.35278,-0.04991 -0.35278,0.155569 0,0.205478 0.15875,0.373597 0.35278,0.373597 0.19402,0 0.35277,-0.07001 0.35277,-0.155569 z m -4.77756,-0.52561 c 0.11163,-0.180621 0.0416,-0.428114 -0.15557,-0.549986 -0.19719,-0.121872 -0.35853,0.02591 -0.35853,0.328401 0,0.619663 0.21168,0.710903 0.5141,0.221585 z m 2.76991,-7e-5 c 0.15697,-0.01337 0.1806,-0.193879 0.0525,-0.401134 -0.12809,-0.207255 -0.44588,-0.295096 -0.7062,-0.195202 -0.33195,0.12738 -0.50567,-0.199719 -0.58168,-1.095208 -0.17463,-2.057602 -0.99031,-1.890678 -0.99031,0.202662 0,1.725908 0.0238,1.766087 0.97014,1.641205 0.53358,-0.07041 1.09857,-0.138954 1.25554,-0.152323 z m 13.82571,-0.02431 c 0.11992,-0.194028 -0.0295,-0.352778 -0.33196,-0.352778 -0.30249,0 -0.54998,-0.13692 -0.54998,-0.304266 0,-0.167346 0.42954,-0.257114 0.95453,-0.199484 0.525,0.05763 1.19969,-0.03875 1.49931,-0.214173 0.38644,-0.226259 0.10903,-0.322073 -0.95454,-0.329683 -1.07842,-0.0077 -1.4993,-0.156167 -1.4993,-0.528822 0,-0.315592 0.20683,-0.438727 0.52916,-0.315034 0.29104,0.111683 0.52917,0.02732 0.52917,-0.187461 0,-0.214787 -0.39688,-0.390521 -0.88195,-0.390521 -0.81008,0 -0.88194,0.129352 -0.88194,1.5875 0,1.336225 0.10838,1.5875 0.68474,1.5875 0.3766,0 0.78284,-0.15875 0.90276,-0.352778 z m 1.94028,-0.214132 c 0,-0.07625 -0.32687,-0.138646 -0.72638,-0.138646 -0.3995,0 -0.63254,0.151817 -0.51787,0.337371 0.18825,0.30459 1.24425,0.135931 1.24425,-0.198725 z m -9.49355,-4.309894 c 0.0341,-1.599601 -0.0383,-3.008786 -0.16107,-3.131522 -0.12274,-0.122736 -0.22316,1.258511 -0.22316,3.069437 0,4.033944 0.29841,4.082162 0.38423,0.06208 z m 9.49355,1.840449 c 0,-0.07625 -0.32687,-0.138645 -0.72638,-0.138645 -0.3995,0 -0.63254,0.151817 -0.51787,0.33737 0.18825,0.30459 1.24425,0.135931 1.24425,-0.198725 z m -20.22013,-2.674236 c -0.11261,-0.281422 -0.1962,-0.197829 -0.21313,0.213137 -0.0153,0.371886 0.0681,0.580246 0.18528,0.463021 0.11723,-0.117225 0.12976,-0.421496 0.0279,-0.676158 z"
         id="path1012" />
      <path
         style="fill:#8c8c8c;fill-opacity:1;stroke-width:0.352778"
         d="m 107.81378,94.530774 c -0.28178,-0.178255 -0.64895,-0.239659 -0.81594,-0.136458 -0.16698,0.103202 -0.25394,-2.725084 -0.19323,-6.285081 0.10382,-6.08818 0.1629,-6.577517 0.99448,-8.236614 0.48625,-0.970139 1.08156,-1.724201 1.32291,-1.675694 0.73498,0.147716 0.5517,-3.819321 -0.25899,-5.60592 -0.62217,-1.371158 -0.69864,-2.328469 -0.70555,-8.832771 -0.007,-6.16846 0.0779,-7.380545 0.54662,-7.849305 0.3049,-0.304901 0.74146,-0.566512 0.97014,-0.581357 0.60268,-0.03912 1.46241,-0.218545 2.2596,-0.471563 0.53414,-0.169529 0.91408,0.09319 1.63111,1.127873 0.51413,0.741886 0.93478,1.520919 0.93478,1.731184 0,0.210266 0.48996,0.757358 1.0888,1.21576 0.59885,0.458403 1.28455,1.014566 1.52379,1.235917 0.2865,0.265079 0.63736,0.289201 1.02786,0.07066 0.51267,-0.2869 0.59288,-1.021532 0.59288,-5.429541 v -5.097748 h 0.88195 0.88194 v 5.270847 c 0,2.898966 0.12136,5.345851 0.26969,5.437524 0.46425,0.286918 3.90538,-2.029379 4.11646,-2.770871 0.3089,-1.085113 2.26647,-3.229143 2.57678,-2.822222 0.14796,0.194028 0.82464,0.407194 1.50374,0.473703 2.13632,0.209227 2.11667,0.130374 2.11667,8.490734 0,6.946836 -0.0643,7.76943 -0.70556,9.02723 -1.03744,2.034883 -0.96348,4.749978 0.15809,5.803641 0.47501,0.446244 0.96347,1.265846 1.08548,1.821338 0.122,0.555492 0.36836,1.10055 0.54746,1.211239 0.1791,0.11069 0.32564,2.964426 0.32564,6.341633 0,7.076285 0.10136,6.87076 -3.38862,6.87076 -1.40902,0 -2.22502,-0.182026 -2.68595,-0.599158 -0.71798,-0.649771 -1.28531,-0.833801 -2.93181,-0.951011 -0.58788,-0.04185 -1.24824,-0.186951 -1.46747,-0.322439 -0.45196,-0.279333 -1.5206,0.0426 -1.5206,0.458096 0,0.606453 -1.34127,0.589742 -1.78234,-0.02219 -0.36459,-0.505848 -0.76542,-0.599736 -1.89758,-0.444486 -0.78945,0.108257 -1.71317,0.343274 -2.05272,0.52226 -0.33954,0.178989 -0.61736,0.228949 -0.61736,0.111026 0,-0.117923 -0.41828,0.114617 -0.92952,0.516756 -0.69242,0.544661 -1.43479,0.729781 -2.91041,0.725759 -1.0895,-0.0028 -2.21145,-0.151246 -2.49322,-0.329501 z m 12.55535,-2.594701 c 0.13497,-0.13497 -0.0986,-0.245396 -0.51896,-0.245396 -0.42039,0 -0.76435,0.144702 -0.76435,0.321564 0,0.358655 0.90202,0.305117 1.28331,-0.07617 z m 0.1278,-1.832896 c 0,-0.329258 -0.33318,-0.529167 -0.88194,-0.529167 -0.8565,0 -1.1264,0.343511 -0.64676,0.823147 0.44379,0.443788 1.5287,0.235151 1.5287,-0.29398 z m 8.64306,-0.881945 c -0.11992,-0.194027 -0.0305,-0.352777 0.19876,-0.352777 0.3106,0 0.3049,-0.134832 -0.0224,-0.529167 -0.32727,-0.394335 -0.33297,-0.529167 -0.0224,-0.529167 0.22924,0 0.30821,-0.175697 0.17549,-0.39044 -0.3448,-0.557897 -0.76203,0.207892 -0.65183,1.196361 0.10812,0.969744 0.1039,0.957968 0.34315,0.957968 0.10846,0 0.0991,-0.15875 -0.0208,-0.352777 z m -18.52083,-0.508345 c 0,-0.08556 -0.15875,-0.253683 -0.35278,-0.373599 -0.19403,-0.119916 -0.35278,-0.04991 -0.35278,0.155568 0,0.205479 0.15875,0.373599 0.35278,0.373599 0.19403,0 0.35278,-0.07001 0.35278,-0.155568 z m -2.17838,-2.985343 c 0.0303,-0.774186 -0.0725,-1.486522 -0.22858,-1.58297 -0.15606,-0.09645 -0.28694,0.602529 -0.29086,1.553283 -0.008,2.045011 0.43947,2.070612 0.51944,0.0297 z m 22.91632,-0.01693 c -0.0418,-0.960674 -0.15074,-1.67195 -0.2421,-1.580593 -0.28601,0.286011 -0.24685,3.327327 0.0428,3.327327 0.1514,0 0.24107,-0.786021 0.19926,-1.746716 z m -10.86017,-1.302033 c 0,-0.110946 -0.22787,-0.114279 -0.50637,-0.0074 -0.27851,0.106873 -0.58347,0.0048 -0.67771,-0.22684 -0.0942,-0.231635 -0.18386,-0.05838 -0.19918,0.385008 -0.0242,0.699182 0.0658,0.756053 0.67771,0.428559 0.38805,-0.207681 0.70555,-0.468376 0.70555,-0.579322 z m -6.4596,-1.44915 c -0.0887,-0.339549 -0.16133,-0.06174 -0.16133,0.617361 0,0.679097 0.0726,0.95691 0.16133,0.617361 0.0887,-0.339548 0.0887,-0.895174 0,-1.234722 z m 1.76519,0.359492 c -0.0894,-0.343242 -0.16851,-0.147825 -0.1757,0.434258 -0.007,0.582083 0.066,0.862917 0.16262,0.624075 0.0966,-0.238842 0.10252,-0.715092 0.0131,-1.058333 z m 9.3452,0.534211 c -0.32142,-0.321419 -0.5189,-0.308161 -0.85843,0.05763 -0.29736,0.320372 -0.3053,0.398917 -0.0244,0.24119 0.22913,-0.128643 0.52283,-0.062 0.65268,0.148106 0.12985,0.210101 0.32868,0.28942 0.44183,0.176263 0.11316,-0.113156 0.0179,-0.393593 -0.21171,-0.623193 z m -1.00447,-1.070092 c -0.31896,-0.526852 -0.82409,-0.24803 -0.82409,0.454881 0,0.597661 0.0833,0.642454 0.49213,0.264584 0.27068,-0.250185 0.42006,-0.573944 0.33196,-0.719465 z m -0.20374,-1.333681 c -0.36609,-0.590675 -0.35294,-0.772945 0.075,-1.039152 0.28543,-0.177557 0.41505,-0.426735 0.28806,-0.553728 -0.41028,-0.410277 -0.98339,0.210924 -0.98339,1.065899 0,0.694398 0.2372,0.990673 0.97312,1.21545 0.0502,0.01532 -0.10859,-0.294493 -0.35277,-0.688469 z m 1.34512,0.08636 c 0,-0.364334 -0.25983,-0.629961 -0.61622,-0.629961 -0.56923,0 -0.57275,0.04804 -0.0461,0.629961 0.31356,0.346478 0.59086,0.62996 0.61622,0.62996 0.0254,0 0.0461,-0.283482 0.0461,-0.62996 z m -10.54174,-1.398512 c -0.0887,-0.339549 -0.16133,-0.06174 -0.16133,0.617361 0,0.679097 0.0726,0.956909 0.16133,0.617361 0.0887,-0.339549 0.0887,-0.895174 0,-1.234722 z m 10.69293,-0.08819 c 0,-0.194028 -0.07,-0.352778 -0.15557,-0.352778 -0.0856,0 -0.25368,0.15875 -0.37359,0.352778 -0.11992,0.194028 -0.0499,0.352778 0.15556,0.352778 0.20548,0 0.3736,-0.15875 0.3736,-0.352778 z m -7.85643,-6.253937 c -0.0764,-0.731932 -0.14013,-0.219535 -0.1417,1.138659 -0.002,1.358195 0.0609,1.957048 0.13885,1.330785 0.0779,-0.626262 0.0792,-1.737512 0.003,-2.469444 z m -1.78036,2.307236 c -0.11261,-0.281423 -0.19621,-0.19783 -0.21313,0.213136 -0.0153,0.371887 0.0681,0.580246 0.18528,0.463021 0.11723,-0.117225 0.12976,-0.421496 0.0279,-0.676157 z m 6.01369,-3.012792 c -0.0764,-0.731931 -0.14013,-0.219535 -0.14169,1.13866 -0.002,1.358194 0.0609,1.957048 0.13885,1.330785 0.0779,-0.626263 0.0792,-1.737513 0.003,-2.469445 z m -4.98321,2.116148 c -0.3586,-0.358604 -0.65449,0.18129 -0.36026,0.65736 0.22226,0.359628 0.30536,0.359906 0.42485,0.0014 0.0817,-0.245105 0.0526,-0.541557 -0.0646,-0.658782 z m 6.13687,0.433623 c 0,-0.291042 -0.15875,-0.529167 -0.35278,-0.529167 -0.19403,0 -0.35278,0.238125 -0.35278,0.529167 0,0.291042 0.15875,0.529167 0.35278,0.529167 0.19403,0 0.35278,-0.238125 0.35278,-0.529167 z m -6.81457,-1.653646 c -0.11262,-0.281422 -0.19621,-0.197829 -0.21314,0.213137 -0.0153,0.371886 0.0681,0.580245 0.18529,0.463021 0.11722,-0.117226 0.12976,-0.421496 0.0279,-0.676158 z m 7.04821,-0.374826 c -0.0979,-0.242535 -0.17794,-0.0441 -0.17794,0.440972 0,0.485069 0.0801,0.683507 0.17794,0.440972 0.0979,-0.242535 0.0979,-0.63941 0,-0.881944 z m -7.65278,-1.499306 c 0,-0.194028 -0.15389,-0.114653 -0.34197,0.176389 -0.18809,0.291042 -0.34198,0.687917 -0.34198,0.881944 0,0.194028 0.15389,0.114653 0.34198,-0.176388 0.18808,-0.291042 0.34197,-0.687917 0.34197,-0.881945 z m 1.42192,0.657831 c 0,-0.263329 -0.22578,-0.372658 -0.52917,-0.256238 -0.29104,0.111683 -0.52917,0.318368 -0.52917,0.459298 0,0.140932 0.23813,0.256239 0.52917,0.256239 0.29104,0 0.52917,-0.206685 0.52917,-0.459299 z m 6.34459,-0.430991 c -0.003,-0.31879 -0.13969,-0.791475 -0.30383,-1.050412 -0.2229,-0.351634 -0.35425,-0.262345 -0.51895,0.352778 -0.34971,1.306082 -0.27038,1.698811 0.29902,1.480312 0.29104,-0.111683 0.52673,-0.463888 0.52376,-0.782678 z m -6.45638,-2.233264 c -0.11262,-0.281422 -0.19621,-0.197829 -0.21314,0.213137 -0.0153,0.371887 0.0681,0.580246 0.18528,0.463021 0.11723,-0.117225 0.12976,-0.421496 0.0279,-0.676158 z m 7.05555,0 c -0.11261,-0.281422 -0.19621,-0.197829 -0.21314,0.213137 -0.0153,0.371887 0.0681,0.580246 0.18529,0.463021 0.11723,-0.117225 0.12976,-0.421496 0.0279,-0.676158 z m 6.35,-1.411111 c -0.11261,-0.281422 -0.19621,-0.197829 -0.21314,0.213137 -0.0153,0.371886 0.0681,0.580246 0.18529,0.463021 0.11723,-0.117225 0.12976,-0.421496 0.0279,-0.676158 z m -10.29515,-6.842443 c 0,-4.508303 -0.12642,-6.994204 -0.35278,-6.937033 -0.22045,0.05568 -0.35278,2.735112 -0.35278,7.143382 0,4.545834 0.12545,7.012589 0.35278,6.937033 0.21945,-0.07294 0.35278,-2.772644 0.35278,-7.143382 z m -10.58334,6.203034 c 0.11992,-0.194028 0.0499,-0.352778 -0.15557,-0.352778 -0.20547,0 -0.37359,0.15875 -0.37359,0.352778 0,0.194027 0.07,0.352777 0.15557,0.352777 0.0856,0 0.25368,-0.15875 0.37359,-0.352777 z m 7.27695,-0.264584 c 0.43881,-0.559525 0.42633,-0.572003 -0.1332,-0.133193 -0.58764,0.460858 -0.77451,0.750554 -0.48416,0.750554 0.0733,0 0.35106,-0.277812 0.61736,-0.617361 z m -5.9401,-1.499657 c -0.2357,-0.901328 0.31307,-0.905214 1.12507,-0.008 0.34704,0.38348 0.76852,0.612236 0.93662,0.508346 0.1681,-0.103891 0.30563,-0.0114 0.30563,0.205526 0,0.21693 0.15875,0.296305 0.35278,0.176389 0.19403,-0.119916 0.35278,-0.923034 0.35278,-1.784709 0,-0.861674 -0.15875,-1.56668 -0.35278,-1.56668 -0.19403,0 -0.35278,0.577034 -0.35278,1.282298 v 1.282297 l -0.73116,-0.929519 c -0.40214,-0.511237 -0.95776,-0.92952 -1.23472,-0.92952 -0.27696,0 -0.506,-0.198438 -0.50897,-0.440972 -0.004,-0.293982 -0.11939,-0.264584 -0.34737,0.08819 -0.38543,0.596407 -0.47177,2.585639 -0.12719,2.930224 0.40901,0.409001 0.76992,-0.09565 0.58209,-0.813909 z m 18.41871,3.52e-4 c 0,-0.755042 -0.16072,-0.881945 -1.11697,-0.881945 -0.61434,0 -1.23611,-0.119062 -1.38172,-0.264583 -0.28107,-0.280911 0.24812,-0.381025 1.49486,-0.282802 0.41803,0.03294 0.86396,-0.108243 0.99095,-0.313728 0.22974,-0.371716 0.0932,-0.401619 -2.28018,-0.499221 -1.0959,-0.04507 -1.24714,0.05691 -1.34516,0.907058 -0.0924,0.801211 0.0518,0.993735 0.88195,1.177385 1.6825,0.372231 1.74594,0.453901 0.37502,0.482763 -0.7276,0.01532 -1.32292,0.18507 -1.32292,0.377226 0,0.197052 0.80749,0.312407 1.85209,0.264584 1.71775,-0.07864 1.85208,-0.148757 1.85208,-0.966737 z M 117.91555,65.58513 c 0.59861,-0.759222 -0.062,-1.286468 -0.84325,-0.672965 -0.5654,0.444029 -0.5851,0.436096 -0.18617,-0.07497 0.38016,-0.487008 0.26623,-0.708772 -0.77021,-1.499306 -0.66899,-0.510268 -1.27747,-0.92776 -1.35218,-0.92776 -0.0747,0 -0.0827,0.671538 -0.0178,1.492307 0.14288,1.806179 1.37048,3.246258 2.22319,2.607968 0.29104,-0.21786 0.71691,-0.634233 0.94639,-0.925275 z m -2.45739,-1.162569 c -0.10389,-0.270721 0.1073,-0.478307 0.51809,-0.509251 0.56607,-0.04264 0.61582,0.04132 0.27082,0.457014 -0.51714,0.623114 -0.56854,0.626517 -0.78891,0.05224 z m 8.78994,0.721971 c 0.14915,-0.436768 0.28635,-1.307388 0.30489,-1.93471 l 0.0337,-1.140586 -0.81344,0.764188 c -0.51502,0.483836 -0.7388,0.999338 -0.61,1.405169 0.13634,0.429552 0.0247,0.640982 -0.33843,0.640982 -0.35481,0 -0.46607,-0.197504 -0.32231,-0.572156 0.19186,-0.499967 0.12922,-0.494801 -0.4965,0.04095 -1.27744,1.093783 -0.15224,2.630345 1.37744,1.881005 0.32641,-0.159897 0.7155,-0.648077 0.86464,-1.084846 z m -13.36441,-2.940237 c -0.33618,-0.336182 -1.01018,0.20835 -0.75964,0.613728 0.14892,0.240948 0.34624,0.234861 0.5996,-0.0185 0.2077,-0.2077 0.27972,-0.475554 0.16004,-0.595231 z m 2.91047,0.382224 c 0,-0.293981 -0.31358,-0.529167 -0.70556,-0.529167 -0.57116,0 -0.70556,-0.235185 -0.70556,-1.234722 0,-0.862345 -0.15959,-1.234722 -0.52916,-1.234722 -0.39982,0 -0.52917,0.431173 -0.52917,1.763889 v 1.763889 h 1.23472 c 0.86235,0 1.23473,-0.15959 1.23473,-0.529167 z m 13.75833,0.205787 c 0,-0.177859 -0.19844,-0.403451 -0.44097,-0.501316 -0.24254,-0.09786 0.0656,-0.190469 0.68473,-0.205787 0.61914,-0.01532 1.21336,-0.169666 1.32048,-0.342996 0.22433,-0.362972 -1.44007,-0.861572 -1.90887,-0.571838 -0.17169,0.106115 -0.41189,0.0316 -0.53376,-0.165595 -0.12187,-0.197193 0.0259,-0.358533 0.3284,-0.358533 0.3025,0 0.54999,-0.149381 0.54999,-0.331958 0,-0.534446 -0.65679,-0.789397 -1.41427,-0.548984 -0.53754,0.170608 -0.7024,0.534753 -0.7024,1.551474 0,0.730698 0.10584,1.434376 0.23519,1.563727 0.35409,0.354096 1.88148,0.2825 1.88148,-0.08819 z m 1.76389,-0.0294 c 0,-0.194028 -0.3175,-0.352778 -0.70556,-0.352778 -0.38805,0 -0.70555,0.15875 -0.70555,0.352778 0,0.194028 0.3175,0.352778 0.70555,0.352778 0.38806,0 0.70556,-0.15875 0.70556,-0.352778 z m 0,-2.431701 c 0,-0.396537 -0.91762,-0.766423 -1.20023,-0.483807 -0.42467,0.424661 -0.19296,0.798841 0.49467,0.798841 0.38806,0 0.70556,-0.141765 0.70556,-0.315034 z m -19.75556,-1.596391 c 0,-0.4692 -0.0964,-1.1042 -0.21413,-1.411111 -0.39407,-1.02692 -0.68786,-0.572774 -0.55189,0.853092 0.14471,1.517359 0.76602,1.969967 0.76602,0.558019 z m 21.08935,-0.909405 c 0.0166,-0.582849 -0.118,-1.059725 -0.29905,-1.059725 -0.36262,0 -0.3714,0.02973 -0.49511,1.677124 -0.0647,0.861526 0.0199,1.059926 0.33891,0.795143 0.23382,-0.194049 0.43868,-0.829693 0.45525,-1.412542 z m -10.50601,-4.234725 c 0,-0.194028 -0.07,-0.352778 -0.15557,-0.352778 -0.0856,0 -0.25369,0.15875 -0.3736,0.352778 -0.11992,0.194027 -0.0499,0.352777 0.15557,0.352777 0.20548,0 0.3736,-0.15875 0.3736,-0.352777 z"
         id="path1010" />
      <path
         style="fill:#767676;fill-opacity:1;stroke-width:0.352778"
         d="m 107.53235,94.435115 c -0.77535,-0.373941 -0.79375,-0.516989 -0.79375,-6.172531 0,-5.18745 0.0811,-5.980012 0.7801,-7.619009 0.83348,-1.954481 1.47008,-2.812906 1.82374,-2.459247 0.57137,0.571373 0.16463,-4.173944 -0.47943,-5.593321 -0.62172,-1.370148 -0.69865,-2.328312 -0.70555,-8.787414 -0.008,-7.507734 0.0991,-8.09625 1.47392,-8.09625 0.34925,0 0.63532,-0.119062 0.63571,-0.264583 3.8e-4,-0.145521 0.57706,-0.305831 1.28149,-0.356244 1.38311,-0.09898 1.88671,0.311775 2.73519,2.230908 0.46763,1.057724 2.97051,3.328808 3.66855,3.328808 0.64225,0 0.78072,-1.06886 0.78072,-6.026075 v -4.910036 h 0.88195 0.88194 v 5.270847 c 0,2.898966 0.14223,5.358748 0.31606,5.466183 0.55829,0.34504 3.91728,-1.729025 3.91728,-2.418787 0,-0.231031 0.40317,-0.966836 0.89594,-1.635122 0.91953,-1.247052 2.3486,-1.671667 3.23733,-0.961897 0.23602,0.188486 0.63147,0.275249 0.8788,0.192808 1.17011,-0.390039 1.33793,0.637084 1.33793,8.188922 0,6.728611 -0.0684,7.59208 -0.70556,8.910905 -0.88282,1.82722 -0.95957,4.911156 -0.13918,5.592022 0.31151,0.258527 0.94651,1.329593 1.41111,2.380147 0.77874,1.76086 0.84474,2.360487 0.84474,7.674624 0,6.650913 0.0815,6.494904 -3.39366,6.494904 -1.52549,0 -2.21047,-0.170554 -2.76058,-0.687359 -1.10175,-1.03504 -4.68412,-1.517298 -5.9141,-0.796153 -0.88407,0.518326 -1.0079,0.513303 -1.64903,-0.06692 -0.61668,-0.558084 -0.92004,-0.582214 -2.74833,-0.218592 -1.13032,0.224804 -2.48527,0.714802 -3.01099,1.088881 -1.07416,0.764324 -4.12687,0.903298 -5.48234,0.249579 z m 12.85111,-2.382686 c 0.0856,-0.560923 -0.073,-0.69119 -0.77132,-0.633398 -0.97463,0.08066 -1.06247,0.328179 -0.49364,1.391045 0.43895,0.820173 1.08304,0.43439 1.26496,-0.757647 z m 0.11347,-1.81696 c 0,-0.47037 -0.25478,-0.661459 -0.88194,-0.661459 -0.62716,0 -0.88195,0.191089 -0.88195,0.661459 0,0.470369 0.25479,0.661458 0.88195,0.661458 0.62716,0 0.88194,-0.191089 0.88194,-0.661458 z m -9.87777,-1.169804 c 0,-0.473619 -0.14733,-0.952176 -0.32738,-1.063456 -0.39792,-0.245925 -0.86475,1.069922 -0.55652,1.568644 0.39975,0.646811 0.8839,0.370099 0.8839,-0.505188 z m 19.05,0.508345 c 0,-0.194027 -0.19844,-0.365312 -0.44098,-0.380629 -0.33744,-0.02131 -0.33399,-0.07077 0.0147,-0.210693 0.34993,-0.140406 0.36037,-0.297702 0.045,-0.677708 -0.313,-0.377137 -0.31155,-0.494859 0.006,-0.494859 0.22924,0 0.31708,-0.161339 0.19521,-0.358531 -0.3884,-0.628453 -0.76145,-0.06394 -0.80993,1.225624 -0.0333,0.885349 0.10414,1.249574 0.47145,1.249574 0.28513,0 0.51843,-0.15875 0.51843,-0.352778 z m 1.76388,-2.86386 c 0,-1.886819 -0.12315,-2.74611 -0.37157,-2.592579 -0.22455,0.138782 -0.32924,1.319693 -0.26458,2.984645 0.13899,3.579167 0.63615,3.272762 0.63615,-0.392066 z m -22.96587,0.246683 c 0.0365,-1.575442 -0.0926,-2.711925 -0.32448,-2.855219 -0.38113,-0.235549 -0.44846,4.02697 -0.0795,5.031424 0.28742,0.782444 0.3422,0.487334 0.40396,-2.176205 z m 11.81563,-1.821399 c 0.37127,-0.96751 0.23927,-1.205868 -0.66781,-1.205868 -0.48507,0 -0.88195,0.145766 -0.88195,0.323925 0,0.70285 0.45147,1.439964 0.88195,1.439964 0.24952,0 0.55004,-0.251108 0.66781,-0.558021 z m 3.93316,-0.524363 c 0.12809,-0.207255 0.45496,-0.291612 0.72638,-0.18746 0.28474,0.109265 0.49348,-0.02979 0.49348,-0.328728 0,-0.317195 -0.37618,-0.538591 -0.97014,-0.570952 l -0.97014,-0.05286 0.97014,-0.146963 c 1.29677,-0.196445 1.23833,-0.690659 -0.0861,-0.728316 -0.98964,-0.02814 -1.05083,0.0463 -0.97014,1.180329 0.087,1.222755 0.37964,1.525695 0.80654,0.834948 z m -9.52278,-0.798423 c 0.26931,0.355346 0.4947,0.458986 0.50087,0.230311 0.0105,-0.390598 -0.91823,-1.524504 -1.2487,-1.524504 -0.0832,0 -0.12958,0.515937 -0.10315,1.146527 0.0368,0.87802 0.0847,0.953911 0.20469,0.324055 0.14871,-0.780844 0.18143,-0.789772 0.64629,-0.176389 z m 1.10934,-0.493729 c -0.0894,-0.343242 -0.16851,-0.147825 -0.1757,0.434258 -0.007,0.582083 0.066,0.862917 0.16262,0.624075 0.0966,-0.238842 0.10252,-0.715092 0.0131,-1.058333 z m -0.95003,-2.467581 c 0,-0.671562 -0.14805,-1.105244 -0.33737,-0.988239 -0.18556,0.114679 -0.25411,0.42549 -0.15234,0.690692 0.10177,0.265202 0.0155,0.586987 -0.1918,0.715077 -0.54761,0.338445 -0.46144,0.779216 0.15234,0.779216 0.36638,0 0.52917,-0.368157 0.52917,-1.196746 z m 1.05833,0.961561 c 0,-0.194028 -0.15875,-0.352778 -0.35278,-0.352778 -0.19402,0 -0.35277,0.15875 -0.35277,0.352778 0,0.194028 0.15875,0.352778 0.35277,0.352778 0.19403,0 0.35278,-0.15875 0.35278,-0.352778 z m 9.525,-0.352778 c 0,-0.533202 -0.23698,-0.706875 -0.97014,-0.710957 -0.70604,-0.0039 -0.83479,-0.09108 -0.47296,-0.320139 0.27345,-0.173105 0.71001,-0.233065 0.97014,-0.133244 0.26013,0.09982 0.47296,-0.0048 0.47296,-0.23246 0,-0.243461 -0.39956,-0.367978 -0.97014,-0.302326 -0.80837,0.09301 -0.98857,0.302803 -1.08068,1.258154 -0.10298,1.068062 -0.0366,1.146528 0.97014,1.146528 0.8455,0 1.08068,-0.153547 1.08068,-0.705556 z m -9.20374,-4.492624 -0.36683,-0.964847 0.90473,0.849952 0.90473,0.849952 0.044,-0.855244 c 0.0433,-0.843082 0.0375,-2.375857 -0.0164,-4.315648 -0.0151,-0.545027 -0.15312,-0.91335 -0.3066,-0.818496 -0.15348,0.09485 -0.22469,-0.411713 -0.15826,-1.125707 0.11354,-1.220216 0.0882,-1.257418 -0.42201,-0.619521 -0.29855,0.373258 -0.61509,1.167008 -0.70342,1.763889 -0.79772,5.390191 -0.80276,5.51776 -0.2312,5.852021 0.30757,0.179872 0.59498,0.331868 0.63868,0.337768 0.0437,0.0059 -0.0856,-0.423453 -0.28737,-0.954119 z m 0.11971,-2.745754 c 0,-0.481531 0.13891,-0.875511 0.30869,-0.875511 0.16977,0 0.30868,0.308131 0.30868,0.684736 0,0.376605 -0.13891,0.770585 -0.30868,0.875511 -0.16978,0.104926 -0.30869,-0.203205 -0.30869,-0.684736 z m 7.51713,2.755134 c -0.11213,-0.292226 -0.29249,-1.585856 -0.40078,-2.874733 -0.23746,-2.826099 -0.78182,-4.723047 -1.26897,-4.421976 -0.19666,0.121544 -0.28618,0.594452 -0.19892,1.050907 0.0873,0.456454 0.0228,0.745977 -0.14317,0.643384 -0.43768,-0.270504 -0.51265,4.612734 -0.0897,5.842442 0.15725,0.457188 0.22071,0.457188 0.53067,0 0.30523,-0.450198 0.40609,-0.440268 0.75819,0.07465 0.47828,0.699449 1.10823,0.455532 0.81267,-0.31467 z m -1.6081,-2.689904 c 0,-0.517407 0.13222,-0.940741 0.29382,-0.940741 0.3436,0 0.30329,1.284377 -0.0515,1.63911 -0.1333,0.133304 -0.24237,-0.180962 -0.24237,-0.698369 z m -6.86157,-1.696304 c 0.2037,-1.549813 0.24339,-2.89632 0.0882,-2.992237 -0.15519,-0.09592 -0.29523,0.271537 -0.31118,0.816564 -0.016,0.545027 -0.0969,1.467209 -0.17989,2.049292 -0.3563,2.499374 -0.41107,3.383532 -0.19642,3.170945 0.12591,-0.124697 0.39559,-1.494751 0.5993,-3.044564 z m 9.12216,1.020147 c -0.0824,-1.212674 -0.30594,-2.681111 -0.49668,-3.263195 -0.25608,-0.781481 -0.29316,-0.274782 -0.14176,1.936982 0.18939,2.766634 0.33276,3.531074 0.66224,3.531074 0.0694,0 0.0586,-0.992188 -0.0238,-2.204861 z m -14.9785,-9.284332 c 0.0234,-6.182109 -0.13543,-7.913585 -0.72589,-7.913585 -0.44318,0 -0.39185,2.018578 0.0734,2.887987 0.28212,0.527133 0.28212,0.65951 0,0.485154 -0.24981,-0.154395 -0.38797,0.144504 -0.38797,0.839372 0,0.593534 0.15495,1.079154 0.34434,1.079154 0.21524,0 0.27921,1.72864 0.17061,4.610502 -0.10904,2.893665 -0.0479,4.532738 0.16417,4.401668 0.19306,-0.119315 0.34793,-2.85857 0.3613,-6.390252 z m 20.8318,4.815268 c 0,-0.760242 0.0964,-1.633367 0.21413,-1.940278 0.1482,-0.386191 0.0124,-0.556356 -0.44097,-0.552617 -0.50208,0.0041 -0.5433,0.07624 -0.17647,0.30868 0.33366,0.211417 0.36038,0.376369 0.0882,0.544585 -0.48638,0.300596 -0.5203,3.021888 -0.0377,3.021888 0.19403,0 0.35278,-0.622016 0.35278,-1.382258 z m -19.07606,-0.526613 c 0.31632,-0.381147 0.31367,-0.55921 -0.0113,-0.760063 -0.26906,-0.166293 -0.33228,-0.113226 -0.1727,0.144983 0.13845,0.224006 0.0836,0.407284 -0.12188,0.407284 -0.20548,0 -0.37359,0.15875 -0.37359,0.352778 0,0.483493 0.19188,0.442551 0.67949,-0.144982 z m 5.20665,0.01158 c -0.10261,-0.267398 -5.3e-4,-0.699749 0.22684,-0.960778 0.22737,-0.26103 0.06,-0.179783 -0.37203,0.180548 -0.76473,0.637879 -0.78356,1.266408 -0.038,1.266408 0.20334,0 0.28575,-0.21878 0.18314,-0.486179 z m 3.55797,-6.657572 c -0.0597,-4.463649 -0.22785,-7.14375 -0.44828,-7.14375 -0.22068,0 -0.38562,2.674902 -0.44048,7.14375 -0.076,6.193646 -0.0164,7.14375 0.44828,7.14375 0.46495,0 0.52332,-0.946682 0.44048,-7.14375 z m 3.25589,6.849769 c 0,-0.16169 -0.23115,-0.293982 -0.51365,-0.293982 -0.28251,0 -0.43189,0.132292 -0.33196,0.293982 0.0999,0.161689 0.33107,0.293981 0.51365,0.293981 0.18257,0 0.33196,-0.132292 0.33196,-0.293981 z m 3.02459,-0.684558 c -0.60951,-0.582161 -0.61897,-0.572699 -0.215,0.215003 0.23241,0.45318 0.51932,0.727213 0.63757,0.608962 0.11825,-0.118252 -0.0719,-0.489036 -0.42257,-0.823965 z m 2.26707,-0.07979 c 0,-0.194028 -0.16812,-0.352778 -0.3736,-0.352778 -0.20547,0 -0.27548,0.15875 -0.15556,0.352778 0.11991,0.194027 0.28803,0.352777 0.37359,0.352777 0.0856,0 0.15557,-0.15875 0.15557,-0.352777 z m -17.59559,-1.790044 c 0.13153,-0.470684 0.25498,-0.661429 0.27432,-0.423877 0.0305,0.374961 1.76681,1.508365 2.3107,1.508365 0.10665,0 0.19391,-0.806979 0.19391,-1.793287 0,-1.276898 -0.12699,-1.751469 -0.44098,-1.648062 -0.24253,0.07987 -0.49339,0.502903 -0.55746,0.940066 -0.11041,0.753287 -0.14116,0.761116 -0.5882,0.149757 -0.36324,-0.496763 -0.37701,-0.766984 -0.0599,-1.175252 0.35793,-0.46081 0.33163,-0.467316 -0.20107,-0.04973 -0.33707,0.264242 -0.83987,0.393328 -1.11733,0.286859 -0.61236,-0.234985 -0.91563,0.464934 -0.91563,2.113175 0,1.414528 0.71536,1.474259 1.10163,0.09198 z m 6.9018,-0.679401 c 0.35065,-0.431268 0.28645,-0.637476 -0.34701,-1.114603 -0.42749,-0.321991 -1.2535,-0.997808 -1.83559,-1.501816 l -1.05833,-0.916378 -0.11274,1.291798 c -0.14238,1.631353 0.13275,2.739776 0.86075,3.467784 0.52557,0.525569 0.62941,0.520559 1.31663,-0.06353 0.41033,-0.348751 0.93966,-0.872217 1.17629,-1.163259 z m -2.35899,-1.058333 c 0,-0.194028 0.16812,-0.352778 0.3736,-0.352778 0.20548,0 0.27549,0.15875 0.15557,0.352778 -0.11991,0.194028 -0.28803,0.352778 -0.3736,0.352778 -0.0856,0 -0.15557,-0.15875 -0.15557,-0.352778 z m 9.10764,-0.404133 0.15836,-2.189391 -1.72258,1.372663 c -0.94742,0.754965 -1.78133,1.410489 -1.85314,1.456722 -0.0718,0.04623 -0.0244,0.507059 0.10536,1.02406 0.12976,0.517 0.32843,0.847498 0.44149,0.734439 0.11305,-0.113059 0.53676,0.02642 0.94156,0.309956 1.12471,0.787773 1.73838,-0.07389 1.92895,-2.708449 z m 4.58594,2.256216 c -0.096,-0.834252 -0.30928,-1.000187 -1.52274,-1.184661 l -1.41111,-0.214522 1.4993,-0.05006 c 1.07528,-0.0359 1.49931,-0.199717 1.49931,-0.579228 0,-0.406229 -0.45077,-0.529167 -1.94028,-0.529167 h -1.94028 v 1.763889 1.763889 h 1.96371 c 1.93411,0 1.96203,-0.01463 1.85209,-0.97014 z m 1.06448,-0.842843 c -0.38518,-0.248585 -0.37454,-0.367692 0.0586,-0.656462 0.34806,-0.232042 0.40264,-0.443331 0.15947,-0.617362 -0.46766,-0.334681 -0.58034,-1.852083 -0.13754,-1.852083 0.18197,0 0.33085,-0.132292 0.33085,-0.293981 0,-0.16169 -0.23184,-0.293982 -0.51519,-0.293982 -0.40076,0 -0.50686,0.489431 -0.47765,2.203417 0.03,1.761575 0.13926,2.164386 0.54477,2.008777 0.41647,-0.159814 0.42303,-0.248978 0.0367,-0.498324 z m -9.25472,-2.632018 c -0.12555,-0.327181 -0.30765,-0.515499 -0.40467,-0.418485 -0.097,0.09701 -0.0737,0.444082 0.0519,0.771263 0.12555,0.32718 0.30765,0.515498 0.40466,0.418485 0.097,-0.09701 0.0737,-0.444082 -0.0519,-0.771263 z m -2.32834,0.211667 c 0,-0.194028 -0.16811,-0.352778 -0.37359,-0.352778 -0.20548,0 -0.27549,0.15875 -0.15557,0.352778 0.11991,0.194027 0.28803,0.352777 0.3736,0.352777 0.0856,0 0.15556,-0.15875 0.15556,-0.352777 z m -4.93888,-0.522687 c 0,-0.294606 -0.29609,-0.535647 -0.65798,-0.535647 -0.51409,0 -0.65058,-0.250727 -0.62414,-1.146527 0.0271,-0.919022 -0.10483,-1.146528 -0.66494,-1.146528 -0.54123,0 -0.69878,0.238608 -0.69878,1.058333 0,0.690901 -0.2222,1.149156 -0.64002,1.319933 -1.06411,0.434935 -0.37553,0.856492 1.5079,0.923153 1.38241,0.04893 1.77796,-0.05624 1.77796,-0.472717 z m 15.40678,-0.447452 c -0.0635,-0.842593 -0.25788,-0.998343 -1.47817,-1.184662 -1.3936,-0.212781 -0.76037,-0.45665 0.8394,-0.323265 0.55758,0.04649 0.78149,-0.08649 0.67672,-0.401923 -0.0976,-0.293976 -0.8428,-0.507801 -1.97982,-0.568114 l -1.82325,-0.09671 v 1.537223 c 0,0.845473 0.10584,1.643057 0.23519,1.772408 0.12935,0.129352 0.99296,0.235186 1.91914,0.235186 1.61959,0 1.68116,-0.03708 1.61079,-0.970139 z m 1.46159,-3.351389 c 0.0181,-2.303379 -0.0302,-2.489563 -0.48662,-1.872852 -0.67906,0.917633 -0.69503,4.430491 -0.0201,4.430491 0.36704,0 0.49157,-0.628497 0.50676,-2.557639 z m -10.51837,-5.027084 c 0,-0.291041 -0.23813,-0.529166 -0.52917,-0.529166 -0.91809,0 -0.62057,0.695259 0.44097,1.030482 0.0485,0.01532 0.0882,-0.210274 0.0882,-0.501316 z"
         id="path1008" />
      <path
         style="fill:#606060;fill-opacity:1;stroke-width:0.352778"
         d="m 107.53235,94.435115 c -0.7748,-0.373673 -0.79375,-0.519458 -0.79375,-6.105839 0,-5.338516 0.0593,-5.857097 0.88248,-7.718482 0.48537,-1.097499 1.12037,-2.086737 1.41112,-2.198306 0.80307,-0.30817 0.69841,-3.909462 -0.16919,-5.821481 -0.62199,-1.370759 -0.69865,-2.328406 -0.70555,-8.814773 -0.006,-5.412046 0.10526,-7.364393 0.43322,-7.618176 0.24254,-0.187678 1.20787,-0.548841 2.14519,-0.802584 1.65171,-0.447139 1.73006,-0.43348 2.54312,0.443376 0.46141,0.4976 0.93515,1.275887 1.05277,1.729527 0.21104,0.813916 2.88061,3.117855 3.61266,3.117855 0.20738,0 0.45959,0.198438 0.56048,0.440972 0.10089,0.242535 0.16834,0.123473 0.14989,-0.264583 -0.0184,-0.388055 -0.008,-3.047118 0.0224,-5.909028 l 0.0559,-5.203472 h 0.88195 0.88194 v 5.302739 c 0,4.32237 0.0952,5.339261 0.51481,5.500288 0.68574,0.263144 3.60656,-1.862558 3.8704,-2.816781 0.11471,-0.414866 0.57335,-1.195077 1.0192,-1.733803 0.79541,-0.961102 0.84504,-0.971561 2.64201,-0.556773 1.78971,0.413115 2.19823,0.85191 1.47057,1.579566 -0.54781,0.547813 -0.29658,13.614183 0.26536,13.801117 0.33124,0.11019 0.46018,-1.550127 0.54566,-7.026451 l 0.11193,-7.170735 -0.0165,7.584722 c -0.0142,6.509414 -0.10402,7.754953 -0.63385,8.78545 -0.80157,1.558992 -0.83155,4.708735 -0.051,5.356542 0.31151,0.258527 0.94651,1.329593 1.41111,2.380147 0.77915,1.761789 0.84474,2.359326 0.84474,7.695766 v 5.785669 l -0.90491,0.344046 c -1.60876,0.611647 -4.55588,0.426145 -5.24003,-0.329822 -0.37595,-0.415417 -1.49509,-0.828029 -2.91799,-1.075817 -1.9746,-0.34386 -2.39545,-0.32295 -2.9122,0.144702 -0.33222,0.300659 -0.75029,0.541825 -0.92904,0.535923 -0.17875,-0.0059 -0.0472,-0.172537 0.29236,-0.370308 0.46469,-0.270654 0.61736,-0.820501 0.61736,-2.223371 0,-1.715516 -0.0631,-1.858991 -0.79375,-1.803446 -0.7211,0.05482 -0.79375,0.240503 -0.79375,2.028829 0,1.451246 -0.10726,1.879166 -0.40823,1.628559 -0.63531,-0.528993 -4.88967,0.330507 -5.61766,1.134929 -0.46821,0.517366 -1.06826,0.668323 -2.58364,0.649993 -1.08559,-0.01313 -2.33099,-0.196141 -2.76755,-0.406686 z m 0.97014,-6.272216 c 0,-2.178738 -0.15256,-3.933204 -0.35278,-4.056944 -0.22777,-0.140771 -0.35278,1.296793 -0.35278,4.056944 0,2.760151 0.12501,4.197717 0.35278,4.056945 0.20022,-0.123741 0.35278,-1.878207 0.35278,-4.056945 z m 22.93055,-0.176389 c 0,-2.469444 -0.13804,-4.056944 -0.35277,-4.056944 -0.21348,0 -0.35278,1.509106 -0.35278,3.821758 0,3.352031 0.12878,4.292131 0.58796,4.292131 0.0647,0 0.11759,-1.825625 0.11759,-4.056945 z m -20.81388,0.852548 c 0,-1.349717 -0.83099,-1.228612 -0.99358,0.144797 -0.0791,0.668257 0.0494,0.942933 0.44098,0.942933 0.38213,0 0.5526,-0.335545 0.5526,-1.08773 z m 13.02338,0.129222 c 0.0808,-0.0549 -0.39541,-0.08141 -1.05834,-0.0589 -0.66293,0.02251 -0.92557,0.113898 -0.58364,0.203087 0.36269,0.09461 0.51818,0.334751 0.37325,0.576439 -0.13663,0.227852 0.0599,0.181384 0.43666,-0.103262 0.37679,-0.284645 0.75122,-0.562458 0.83207,-0.617361 z m 6.09827,0.567168 c 0.28719,-0.861596 -0.14768,-2.732341 -0.59524,-2.560599 -0.63084,0.242077 -0.64265,2.951939 -0.0129,2.951939 0.26272,0 0.53636,-0.176103 0.60811,-0.39134 z m -12.59527,-0.314216 c 0.11992,-0.194027 -0.0295,-0.352777 -0.33195,-0.352777 -0.3025,0 -0.54999,0.15875 -0.54999,0.352777 0,0.194028 0.14938,0.352778 0.33196,0.352778 0.18258,0 0.43007,-0.15875 0.54998,-0.352778 z m -7.04049,-2.092289 c -0.11163,-0.180622 -0.0359,-0.431652 0.16829,-0.557844 0.45052,-0.278441 0.19562,-2.932838 -0.33235,-3.460805 -0.26546,-0.265463 -0.33251,0.290558 -0.22884,1.897586 0.16844,2.610842 0.14217,2.449464 0.39866,2.449464 0.10846,0 0.10587,-0.147783 -0.006,-0.328401 z m 10.38648,-2.405627 c 0.004,-0.612922 -0.19552,-0.79375 -0.87654,-0.79375 -1.04868,0 -1.20921,1.033451 -0.30151,1.941145 0.67711,0.677115 1.16889,0.198127 1.17805,-1.147395 z m 9.12001,0.08819 c 0.0175,-0.873125 -0.10032,-1.5875 -0.26188,-1.5875 -0.34671,0 -0.79568,2.444842 -0.52839,2.877326 0.4384,0.709359 0.7607,0.183328 0.79027,-1.289826 z m -14.99694,-0.6316 c 0.93182,0.582523 1.29584,0.375655 1.27143,-0.722532 -0.021,-0.942963 -0.0717,-1.006282 -0.32799,-0.409757 -0.16675,0.388056 -0.31434,0.599477 -0.32798,0.469825 -0.0136,-0.129651 -0.12115,-0.486839 -0.23893,-0.79375 -0.14051,-0.366177 -0.0192,-0.558019 0.35278,-0.558019 0.3118,0 0.56691,-0.15875 0.56691,-0.352778 0,-0.194028 -0.16873,-0.352778 -0.37495,-0.352778 -0.20622,0 -0.32529,-0.357187 -0.26458,-0.79375 0.0795,-0.571437 -0.0872,-0.821969 -0.59519,-0.894505 -0.65038,-0.09288 -0.70931,0.114031 -0.75358,2.645834 -0.0264,1.510623 0.0253,2.466832 0.1149,2.124908 0.0971,-0.370437 0.33033,-0.517016 0.57718,-0.362698 z m 10.73878,0.333708 c 0.66022,-0.41385 0.17669,-0.931661 -0.90852,-0.972941 -0.87852,-0.03342 -0.86248,-0.05668 0.21511,-0.311883 1.46529,-0.347025 1.8577,-0.710339 0.76722,-0.710339 -0.80545,0 -0.8101,-0.016 -0.14699,-0.505418 0.75115,-0.554393 0.47537,-1.07065 -0.72632,-1.359695 -0.63761,-0.153365 -0.62912,-0.173649 0.0882,-0.210631 0.43656,-0.02251 0.79375,-0.210218 0.79375,-0.417133 0,-0.206916 -0.43656,-0.325978 -0.97014,-0.264583 -0.80837,0.09301 -0.98857,0.302803 -1.08068,1.258154 -0.0869,0.901472 0.0262,1.155275 0.52917,1.18745 0.58991,0.03774 0.59165,0.05348 0.0224,0.202257 -0.43797,0.114451 -0.61736,0.516118 -0.61736,1.382257 0,1.063312 0.10246,1.206826 0.79375,1.111728 0.43656,-0.06006 0.99477,-0.235208 1.24047,-0.389223 z m -16.29518,-2.2626 c -0.42564,-0.425637 -0.62847,0.275715 -0.35316,1.221147 l 0.28729,0.986567 0.1344,-1.00239 c 0.0739,-0.551315 0.0431,-1.093711 -0.0685,-1.205324 z m 21.43153,0.198521 c -0.32934,-0.73808 -0.35837,-0.709055 -0.3896,0.389602 -0.0246,0.866199 0.0716,1.081777 0.35585,0.797492 0.27052,-0.27052 0.28083,-0.633357 0.0337,-1.187094 z m -19.5178,0.06892 c 0,-0.391976 -0.23518,-0.705556 -0.52916,-0.705556 -0.63789,0 -0.682,0.411619 -0.10584,0.987778 0.56931,0.569308 0.635,0.540111 0.635,-0.282222 z m 18.54604,-0.713196 c 0,-0.621279 -0.0462,-0.628637 -0.62997,-0.100336 -0.34647,0.313558 -0.62996,0.68939 -0.62996,0.835181 0,0.145791 0.28349,0.190942 0.62996,0.100336 0.34648,-0.09061 0.62997,-0.466437 0.62997,-0.835181 z m -12.22083,0.448612 c -0.0136,-0.145521 -0.16123,-0.582083 -0.32798,-0.970139 -0.26867,-0.62521 -0.30602,-0.595081 -0.32799,0.264584 -0.0136,0.533576 0.13396,0.970139 0.32799,0.970139 0.19402,0 0.34162,-0.119063 0.32798,-0.264584 z m 2.84702,-0.06523 c 0,-0.181397 0.18314,-0.77671 0.40698,-1.322917 0.62548,-1.526272 0.63475,-1.875049 0.0498,-1.875049 -0.38918,0 -0.49072,-0.252963 -0.36517,-0.909749 0.21999,-1.150776 -0.62336,-1.546326 -1.44193,-0.676297 -0.3245,0.344906 -0.39156,0.515995 -0.14903,0.380198 0.27143,-0.151974 0.44097,-0.03119 0.44097,0.314155 0,0.308583 -0.23721,0.652086 -0.52714,0.763342 -0.28993,0.111255 -0.41358,0.384085 -0.27479,0.606289 0.1388,0.222203 0.29979,0.709047 0.35777,1.081874 0.058,0.372828 0.25964,0.863684 0.44812,1.090793 0.18849,0.227108 0.23824,0.51738 0.11057,0.645048 -0.12766,0.127669 0.0325,0.232125 0.35584,0.232125 0.32338,0 0.58797,-0.148416 0.58797,-0.329812 z m 9.631,-2.259819 c 0.0998,-0.260129 0.0399,-0.696692 -0.13324,-0.970138 -0.22906,-0.361833 -0.31621,-0.233082 -0.32014,0.472963 -0.006,1.053477 0.16712,1.243169 0.45338,0.497175 z m -19.9807,-1.026342 c -0.0979,-0.242534 -0.17794,-0.0441 -0.17794,0.440973 0,0.485069 0.0801,0.683507 0.17794,0.440972 0.0979,-0.242535 0.0979,-0.63941 0,-0.881945 z m 1.53025,1.013335 c 0,-0.07326 -0.24176,-0.333835 -0.53724,-0.579065 -0.44921,-0.37281 -0.50083,-0.350984 -0.31504,0.133193 0.18976,0.494502 0.85228,0.841101 0.85228,0.445872 z m 0.48035,-1.101529 c 0.11169,-0.291042 0.0493,-0.529167 -0.13864,-0.529167 -0.18794,0 -0.34171,0.238125 -0.34171,0.529167 0,0.291042 0.0624,0.529167 0.13865,0.529167 0.0763,0 0.23002,-0.238125 0.3417,-0.529167 z m 15.98842,-0.595313 c -0.11262,-0.281422 -0.19621,-0.197829 -0.21314,0.213137 -0.0153,0.371886 0.0681,0.580246 0.18529,0.463021 0.11722,-0.117225 0.12975,-0.421496 0.0279,-0.676158 z M 117.7003,76.901189 c 0.48716,-1.015375 0.49883,-1.528148 0.0958,-4.207705 -0.25242,-1.67828 -0.46238,-3.170481 -0.46657,-3.316002 -0.0147,-0.508974 -0.63988,-0.259057 -0.88255,0.352778 -0.13467,0.339549 -0.47115,2.204861 -0.74773,4.145139 -0.46676,3.274448 -0.45924,3.559785 0.10466,3.973505 0.83348,0.611502 1.24759,0.404551 1.89637,-0.947715 z m 5.93356,0.900644 c 0.49313,-0.594183 -0.36055,-7.364869 -1.03036,-8.171933 -0.3453,-0.416063 -0.32306,-0.517001 0.1139,-0.517001 0.77167,0 0.94303,-0.802949 0.27994,-1.311697 -0.50789,-0.389671 -0.5049,-0.430799 0.032,-0.440973 1.1797,-0.02235 1.7009,-1.025256 1.7009,-3.272912 v -2.152962 l -0.81649,0.76705 c -0.44907,0.421877 -0.96501,0.772331 -1.14653,0.778786 -0.18152,0.0065 -0.68948,0.311539 -1.1288,0.677964 -0.69774,0.581974 -0.74635,0.781251 -0.38434,1.575764 0.22792,0.500244 0.64404,0.909536 0.92469,0.909536 0.3439,0 0.4306,0.201306 0.26592,0.617361 -0.13441,0.339548 -0.30131,1.043767 -0.37091,1.56493 -0.0696,0.521162 -0.30408,1.926709 -0.52109,3.123436 -0.21701,1.196727 -0.3108,2.259631 -0.20842,2.362009 0.10238,0.102379 0.0326,0.473136 -0.15518,0.823905 -0.22279,0.416287 -0.21848,0.713681 0.0124,0.85638 0.19456,0.12024 0.35374,0.454075 0.35374,0.741854 0,0.636614 0.73485,1.519992 1.27972,1.538373 0.21877,0.0074 0.57827,-0.204061 0.79887,-0.46987 z m -1.34519,-3.603054 c 0.0169,-0.410966 0.10052,-0.494559 0.21314,-0.213137 0.10191,0.254662 0.0894,0.558932 -0.0279,0.676158 -0.11723,0.117224 -0.20061,-0.09113 -0.18529,-0.463021 z m -6.89246,-1.067138 c 0.28789,-1.917794 0.4439,-3.694184 0.34668,-3.947532 -0.0972,-0.253348 -0.0342,-0.372498 0.14014,-0.264777 0.42785,0.264427 1.4389,-0.148365 1.4389,-0.587475 0,-0.194028 -0.26058,-0.252784 -0.57906,-0.13057 -0.50122,0.192338 -0.51596,0.138133 -0.10961,-0.403229 0.25819,-0.34399 0.0416,-0.224063 -0.48125,0.266506 -0.82657,0.775477 -1.0105,1.355354 -1.40868,4.440959 -0.41599,3.223604 -0.42287,4.665326 -0.0203,4.262801 0.0824,-0.08238 0.38533,-1.718888 0.67322,-3.636683 z m 11.96482,3.413968 c 0.11163,-0.180621 0.0681,-0.411763 -0.0968,-0.513649 -0.16485,-0.101885 -0.29973,0.0459 -0.29973,0.328402 0,0.594842 0.11124,0.646815 0.3965,0.185247 z m -2.83458,-4.081321 c -0.26199,-1.940278 -0.48689,-3.607153 -0.49977,-3.704167 -0.0129,-0.09701 -0.16873,0.07193 -0.34632,0.375431 -0.19697,0.336598 -0.18479,1.574917 0.0312,3.175 0.49981,3.702279 0.66341,4.357466 0.99808,3.997125 0.16121,-0.173586 0.0788,-1.903111 -0.18322,-3.843389 z m -4.25472,1.058333 c 0.1483,-0.386465 -0.0434,-0.529166 -0.71101,-0.529166 -0.7725,0 -0.84605,0.08195 -0.4749,0.529166 0.24155,0.291042 0.5615,0.529167 0.71101,0.529167 0.14951,0 0.36322,-0.238125 0.4749,-0.529167 z m -6.65396,-2.293055 c -0.11992,-0.194028 -0.52616,-0.352778 -0.90277,-0.352778 -0.74817,0 -0.93282,-0.863365 -0.272,-1.271774 0.27751,-0.171513 0.33892,-0.06276 0.18746,0.331958 -0.1428,0.372128 -0.0477,0.587038 0.2598,0.587038 0.32339,0 0.42258,-0.264566 0.29761,-0.79375 -0.18544,-0.785237 -0.18118,-0.786183 0.3971,-0.08819 0.55042,0.664375 0.57208,0.52099 0.37108,-2.456649 -0.1174,-1.739213 -0.29489,-3.293979 -0.39443,-3.455037 -0.0995,-0.161058 0.009,-0.522125 0.2419,-0.802371 0.33755,-0.40673 0.30212,-0.555877 -0.1756,-0.739196 -0.32916,-0.126311 -0.44267,-0.326627 -0.25224,-0.445147 0.33998,-0.211594 0.53467,-1.334974 0.45753,-2.639935 -0.0338,-0.571361 -0.11713,-0.595759 -0.61727,-0.180684 -0.31801,0.26393 -0.92698,0.434169 -1.35325,0.378308 -0.42627,-0.05586 -0.95459,0.114772 -1.17403,0.379182 -0.96113,1.158092 -0.87007,9.78514 0.10328,9.78514 0.25096,0 0.55474,-0.392293 0.67508,-0.871762 0.24686,-0.983543 1.44586,-1.814635 1.79738,-1.245859 0.19442,0.314571 -0.0175,0.406256 -0.76202,0.329742 -0.12839,-0.01319 -0.43823,0.463056 -0.68853,1.058334 -0.25029,0.595277 -0.70087,1.082323 -1.00128,1.082323 -0.78539,0 -0.67237,0.577168 0.23786,1.214718 0.86616,0.606685 2.91791,0.763637 2.56734,0.196393 z M 128.31846,70.9985 c 0.77943,-0.705371 0.82972,-1.180045 0.12503,-1.180045 -0.28606,0 -0.75897,-0.461908 -1.05091,-1.026461 -0.29194,-0.564554 -0.73258,-1.107646 -0.9792,-1.206872 -0.31507,-0.12677 -0.29106,-0.188028 0.0808,-0.206031 0.29104,-0.01409 0.80549,0.459911 1.14323,1.053337 0.79776,1.401709 1.20238,1.099422 1.5086,-1.127052 0.18613,-1.353319 0.12802,-1.88306 -0.23153,-2.110871 -0.26402,-0.167274 -0.3056,-0.306566 -0.0924,-0.309537 0.24476,-0.0034 0.39434,-0.973012 0.40588,-2.630914 0.0182,-2.610858 0.0126,-2.626755 -0.99636,-2.848362 -0.55805,-0.122567 -1.18421,-0.118045 -1.39147,0.01005 -0.20726,0.128095 -0.60801,0.04104 -0.89055,-0.193445 -0.44105,-0.366036 -0.51372,-0.09293 -0.51372,1.930729 0,1.791766 0.10576,2.293533 0.44097,2.092144 0.34821,-0.209193 0.35099,-0.153665 0.0133,0.263941 -0.23525,0.290878 -0.50278,1.919759 -0.59452,3.619736 -0.14341,2.657387 -0.0958,3.031934 0.33952,2.670654 0.40453,-0.335731 0.50633,-0.305143 0.50633,0.15215 0,0.314799 0.15482,0.572362 0.34404,0.572362 0.22327,0 0.22364,-0.316694 0.001,-0.902105 -0.22685,-0.596665 -0.22389,-0.828507 0.009,-0.684736 0.19345,0.119553 0.35172,0.393938 0.35172,0.609744 0,0.215806 0.2736,0.722375 0.608,1.125708 0.3344,0.403334 0.39362,0.546489 0.1316,0.318123 -0.30958,-0.269816 -0.75685,-0.308586 -1.27728,-0.110717 -0.44049,0.167471 -0.92203,0.195566 -1.0701,0.06243 -0.14807,-0.133134 -0.15503,-0.04362 -0.0155,0.198911 0.36494,0.634156 2.33675,0.543127 3.09477,-0.142871 z m -18.75764,-7.015222 c 0,-6.415683 -0.11725,-7.570379 -0.7687,-7.570379 -0.21085,0 -0.3052,2.815232 -0.24786,7.395782 0.0757,6.048602 0.17673,7.32594 0.55457,7.01236 0.35,-0.290477 0.46199,-1.948015 0.46199,-6.837763 z m 10.58334,-2.102324 c 0,-6.19321 -0.076,-7.231944 -0.52917,-7.231944 -0.45316,0 -0.52917,1.038734 -0.52917,7.231944 0,6.193211 0.076,7.231945 0.52917,7.231945 0.45316,0 0.52917,-1.038734 0.52917,-7.231945 z m -3.52071,4.930364 c 0.24544,-0.29573 0.53444,-0.449501 0.64223,-0.341713 0.10778,0.107788 0.3847,-0.156664 0.61537,-0.587673 0.37847,-0.707166 0.25974,-0.930685 -1.21639,-2.290113 -0.89968,-0.828554 -1.75484,-1.512765 -1.90037,-1.520469 -0.53869,-0.02852 -0.28225,4.151254 0.28979,4.723295 0.69313,0.693133 1.00521,0.696448 1.56937,0.01667 z m 2.02137,-4.489391 c -0.12912,-0.746521 -0.15383,-0.736073 -0.41536,0.1756 -0.15293,0.533142 -0.15364,1.247517 -0.002,1.5875 0.2428,0.542801 0.29343,0.521396 0.41536,-0.1756 0.0764,-0.436563 0.0771,-1.150938 0.002,-1.5875 z m 2.53287,0.881944 c -0.0136,-0.533576 -0.16616,-1.287639 -0.33894,-1.675694 -0.23295,-0.523181 -0.30069,-0.272416 -0.26207,0.970139 0.0286,0.921632 0.18118,1.675694 0.33895,1.675694 0.15777,0 0.2757,-0.436562 0.26206,-0.970139 z m -4.44263,-2.556553 c -0.28923,-0.289228 -1.17286,1.131341 -0.93905,1.509658 0.11845,0.191656 0.41787,-0.02993 0.66539,-0.492413 0.24751,-0.462484 0.37066,-0.920243 0.27366,-1.017245 z m 6.52495,0.539143 c -0.21824,-0.478986 -0.53277,-0.786851 -0.69895,-0.684146 -0.36308,0.224398 0.28976,1.555028 0.76294,1.555028 0.19127,0 0.16406,-0.370368 -0.064,-0.870882 z m 1.29387,-1.245784 c 0.11991,-0.194028 0.0499,-0.352778 -0.15557,-0.352778 -0.20548,0 -0.3736,0.15875 -0.3736,0.352778 0,0.194027 0.07,0.352777 0.15557,0.352777 0.0856,0 0.25368,-0.15875 0.3736,-0.352777 z m -13.37616,-1.411111 c 0.61693,0 0.6646,-0.939844 0.0588,-1.159233 -0.35094,-0.127088 -0.35199,-0.310504 -0.005,-0.89829 0.3814,-0.646384 0.35938,-0.710404 -0.17639,-0.512796 -0.89283,0.329303 -1.01878,0.647471 -0.84108,2.124633 0.0878,0.730196 0.2282,1.129192 0.31189,0.886658 0.0837,-0.242535 0.37707,-0.440972 0.65194,-0.440972 z m 17.84336,-0.828955 c 0.0581,-0.862674 -0.0915,-1.446117 -0.42487,-1.656989 -0.83172,-0.526094 -1.08076,-0.386007 -0.6214,0.349543 0.35551,0.569253 0.31105,0.81851 -0.26159,1.466494 -0.6888,0.779432 -0.68866,0.780362 0.0918,0.585081 0.42993,-0.107575 0.76832,-0.09281 0.75198,0.03281 -0.061,0.468564 0.0592,0.869781 0.21413,0.714868 0.0882,-0.08816 0.20064,-0.759476 0.24996,-1.491809 z m -15.5347,0.211593 c 0.43881,-0.559525 0.42633,-0.572003 -0.1332,-0.133193 -0.58764,0.460858 -0.77451,0.750555 -0.48416,0.750555 0.0732,0 0.35106,-0.277813 0.61736,-0.617362 z m 6.65778,-4.145139 c 0,-0.291041 -0.23813,-0.529166 -0.52917,-0.529166 -0.29104,0 -0.52917,0.238125 -0.52917,0.529166 0,0.291042 0.23813,0.529167 0.52917,0.529167 0.29104,0 0.52917,-0.238125 0.52917,-0.529167 z"
         id="path1006" />
      <path
         style="fill:#494949;fill-opacity:1;stroke-width:0.352778"
         d="m 107.53235,94.435115 c -0.77503,-0.373782 -0.79375,-0.518449 -0.79375,-6.133137 0,-5.532655 0.30917,-7.547412 1.15816,-7.547412 0.18664,0 0.14172,0.238125 -0.0998,0.529166 -0.24154,0.291042 -0.28646,0.529167 -0.0998,0.529167 0.37014,0 1.16497,-1.539477 1.14694,-2.22146 -0.006,-0.233405 -0.2443,-0.116219 -0.52917,0.260414 -0.28487,0.376633 -0.51795,0.48848 -0.51795,0.248548 0,-0.239931 0.41672,-0.852958 0.92605,-1.362281 0.7592,-0.759201 0.92604,-1.252572 0.92604,-2.738431 0,-0.996814 -0.26205,-2.31913 -0.58233,-2.938479 -0.34087,-0.65918 -0.4277,-1.126089 -0.20941,-1.126089 0.2051,0 0.45413,0.211667 0.55341,0.47037 0.31947,0.832531 1.28453,0.555577 1.11704,-0.32057 -0.10891,-0.569739 -0.0129,-0.737887 0.34317,-0.601236 0.2719,0.104337 0.40643,0.418845 0.29896,0.698905 -0.24778,0.645703 0.39542,1.878103 0.96101,1.841347 0.32302,-0.02099 0.31996,-0.07167 -0.0124,-0.205787 -0.93658,-0.377921 -0.3926,-0.896241 0.79509,-0.757584 1.04077,0.121503 1.20572,0.04868 1.04399,-0.460882 -0.10565,-0.332852 -0.01,-0.718025 0.21365,-0.85594 0.29052,-0.179553 0.33105,-1.21475 0.14272,-3.645661 -0.14466,-1.867199 -0.24128,-4.773305 -0.21472,-6.458015 0.0266,-1.68471 -0.1034,-3.43096 -0.28882,-3.880556 -0.47598,-1.154173 -1.68951,-2.613134 -1.95374,-2.348897 -0.12205,0.122043 0.19849,0.642288 0.7123,1.156099 0.76729,0.767289 0.8562,1.028196 0.4976,1.460279 -0.38146,0.459636 -0.53958,0.429337 -1.25196,-0.239911 -0.63764,-0.599035 -0.73873,-0.909157 -0.4638,-1.422863 0.28206,-0.527043 0.22707,-0.655808 -0.27823,-0.651474 -0.90978,0.0078 -1.64198,0.556755 -1.3572,1.017533 0.13469,0.217945 0.23104,3.448078 0.2141,7.178075 -0.0249,5.469656 -0.13125,6.882262 -0.54997,7.300977 -0.42122,0.421219 -0.60283,0.434069 -0.96265,0.06811 -0.24393,-0.248079 -0.28475,-0.420913 -0.0907,-0.384077 1.24271,0.235928 1.26481,0.102963 1.16069,-6.983939 -0.0563,-3.832049 -0.22741,-7.216526 -0.38025,-7.52106 -0.22466,-0.447618 0.0795,-0.636494 1.5875,-0.985848 1.84117,-0.426537 1.87571,-0.419347 2.65981,0.553699 0.43693,0.542216 0.89204,1.303348 1.01137,1.691403 0.11933,0.388056 0.61564,1.032287 1.10292,1.431626 0.67432,0.552616 0.82587,0.91543 0.63439,1.518725 -0.13837,0.43596 -0.43655,0.724385 -0.66262,0.640943 -0.42755,-0.157806 -0.43821,-0.380774 -0.0641,-1.34091 0.13613,-0.349373 0.009,-0.653862 -0.32664,-0.782678 -1.06861,-0.410064 -0.65076,1.657347 0.56346,2.78782 0.61209,0.569878 1.01405,0.861091 0.89324,0.64714 -0.12081,-0.21395 2.6e-4,-0.68975 0.26905,-1.057333 0.37725,-0.51592 0.39478,-0.789237 0.0769,-1.198499 -0.35793,-0.460811 -0.33163,-0.467316 0.20107,-0.04973 0.74669,0.585344 1.65378,0.296927 1.75358,-0.557562 0.0404,-0.345638 0.15943,1.660554 0.26458,4.458204 0.13587,3.614686 0.3188,5.128954 0.63216,5.232871 0.33844,0.112232 0.44098,-0.97798 0.44098,-4.688861 0,-4.239462 0.0646,-4.781452 0.52467,-4.399653 0.28857,0.239492 0.80451,0.337916 1.14653,0.218719 0.51307,-0.178812 0.49843,-0.116294 -0.0837,0.357398 -0.69701,0.56716 -0.69592,0.571843 0.0897,0.386286 0.62754,-0.148228 0.84127,-0.0044 1.01358,0.682156 l 0.21835,0.86999 0.83851,-0.787738 c 0.95899,-0.900921 1.16813,-2.781416 0.30934,-2.781416 -0.64171,0 -0.65632,0.15874 -0.097,1.054315 0.70341,1.126329 -0.1785,1.678378 -0.90644,0.567406 -0.56453,-0.861589 -0.5494,-0.906672 0.59822,-1.782003 0.64757,-0.493928 1.24179,-0.898053 1.32049,-0.898054 0.13031,-4e-6 0.0815,5.907552 -0.0963,11.64167 -0.0489,1.577657 0.0559,2.26686 0.33604,2.209093 0.22821,-0.04706 0.3186,0.146726 0.20568,0.440972 -0.15648,0.407797 0.10219,0.527438 1.15923,0.536154 1.27294,0.0105 1.31651,0.04461 0.67587,0.529167 -0.57112,0.431969 -0.5897,0.517947 -0.11197,0.517947 0.72688,0 1.20963,-1.399706 0.61046,-1.770013 -0.32143,-0.198652 -0.25721,-0.367677 0.24101,-0.634314 0.61845,-0.330981 0.66659,-0.255479 0.53823,0.844026 -0.0835,0.715272 0.0141,1.207523 0.23933,1.207523 0.20977,0 0.27929,-0.263231 0.15504,-0.587038 -0.14467,-0.376998 -0.0867,-0.501388 0.16206,-0.347655 0.47053,0.290804 0.93724,-0.995766 0.58759,-1.619789 -0.13687,-0.244271 0.0259,-0.186052 0.36175,0.129375 0.56488,0.530566 0.5686,0.654715 0.0497,1.658176 -0.74669,1.443945 -0.7688,5.197778 -0.0323,5.480409 0.29075,0.111569 0.92575,1.100807 1.41111,2.198306 0.82314,1.861258 0.88249,2.380147 0.88249,7.715766 v 5.720309 l -0.89855,0.409402 c -1.47889,0.673831 -4.53461,0.522044 -5.24273,-0.26042 -0.35976,-0.397535 -1.53472,-0.845026 -2.89037,-1.100819 -2.00504,-0.378326 -2.36137,-0.361135 -2.91585,0.140656 -0.34742,0.31441 -0.77792,0.56683 -0.95667,0.560928 -0.17875,-0.0059 -0.0472,-0.172537 0.29236,-0.370308 0.46997,-0.273734 0.61736,-0.824477 0.61736,-2.306863 0,-1.817624 -0.0529,-1.939777 -0.79375,-1.834554 -0.67358,0.09566 -0.80974,0.359523 -0.89941,1.742842 l -0.10566,1.630112 -2.59151,0.418056 c -1.72233,0.277841 -2.7997,0.648092 -3.21221,1.103916 -0.48024,0.530659 -1.06734,0.680459 -2.59449,0.661984 -1.08559,-0.01313 -2.33099,-0.196141 -2.76755,-0.406686 z m 3.35321,-2.127077 c 0.72799,-0.90993 0.86355,-2.236167 0.62265,-6.091601 -0.23828,-3.813609 -0.28588,-3.993772 -1.24198,-4.700642 l -0.9942,-0.735043 -0.60972,0.930549 c -0.49709,0.758654 -0.53896,1.130945 -0.22671,2.015379 0.21066,0.596657 0.42168,2.553268 0.46894,4.348025 0.0481,1.82584 0.23744,3.263194 0.4299,3.263194 0.18919,0 0.23952,0.104458 0.11185,0.232124 -0.25345,0.253447 0.39035,1.178987 0.82009,1.178987 0.14651,0 0.42514,-0.198437 0.61918,-0.440972 z m 18.67409,-0.292449 c -0.12992,-0.496817 -0.049,-0.678642 0.25071,-0.563616 0.33441,0.128323 0.46334,-0.73739 0.52779,-3.543702 0.0469,-2.042431 0.25987,-3.993082 0.47327,-4.334782 0.28733,-0.460091 0.26991,-0.906347 -0.0672,-1.720097 -0.53718,-1.296864 -0.61163,-1.308616 -1.85227,-0.29236 -0.91909,0.75286 -0.95863,0.929668 -1.09392,4.891646 -0.0979,2.866563 -10e-4,4.441303 0.31917,5.203444 0.52679,1.25287 1.75616,1.559243 1.44241,0.359467 z m 1.87339,-3.873511 c 0,-2.981452 -0.12447,-4.530002 -0.35277,-4.388901 -0.62475,0.386115 -0.41981,8.995833 0.21413,8.995833 0.0763,0 0.13864,-2.073119 0.13864,-4.606932 z m -22.93055,0.219474 c 0,-2.452074 -0.17427,-4.057344 -0.5339,-4.91807 -0.29365,-0.702793 -0.61115,-1.277805 -0.70556,-1.277805 -0.0944,0 -0.15075,0.912812 -0.12521,2.028472 0.0414,1.806797 0.0748,1.893538 0.30634,0.79375 0.17056,-0.810332 0.27586,0.2578 0.30633,3.107627 0.0299,2.793904 0.17224,4.2646 0.39922,4.124318 0.19831,-0.122562 0.35278,-1.811987 0.35278,-3.858292 z m 6.15727,3.355562 c 0.22085,-0.35735 -0.48858,-2.143104 -0.85139,-2.143104 -0.12392,0 -0.16045,0.555625 -0.0812,1.234723 0.14012,1.200217 0.52219,1.572379 0.93256,0.908381 z m 2.67148,-0.01323 c 0.83861,0.530341 1.04903,0.39969 1.04903,-0.651337 0,-1.379397 -0.6587,-2.065165 -2.20486,-2.295465 -1.05036,-0.15645 -1.32292,-0.083 -1.32292,0.356496 0,0.821595 1.47091,3.051154 1.73308,2.626949 0.14382,-0.232717 0.41458,-0.246017 0.74567,-0.03663 z m 6.14683,-0.466214 c 0.29038,-0.443173 0.57186,-1.195338 0.6255,-1.671471 0.0891,-0.791277 -0.009,-0.855592 -1.13719,-0.74808 -0.6791,0.0647 -1.39347,0.247735 -1.5875,0.406753 -0.26857,0.220112 -0.40655,2.070975 -0.20354,2.730377 0.0149,0.04851 0.42036,0.08819 0.90096,0.08819 0.52075,0 1.08713,-0.325568 1.40177,-0.805773 z m 1.96257,0.306003 c 0.003,-0.210195 0.10054,-0.739362 0.21753,-1.175924 0.117,-0.436563 0.054,-0.79375 -0.14006,-0.79375 -0.3079,0 -0.60204,0.603098 -0.96065,1.969674 -0.0552,0.2102 0.11991,0.382179 0.38904,0.382179 0.26913,0 0.49149,-0.171979 0.49414,-0.382179 z m -12.70482,-3.027997 c 0,-0.388056 -0.14389,-0.705556 -0.31975,-0.705556 -0.17586,0 -0.23672,0.3175 -0.13524,0.705556 0.10148,0.388055 0.24536,0.705555 0.31975,0.705555 0.0744,0 0.13524,-0.3175 0.13524,-0.705555 z m 14.23869,0.176389 c 0.11168,-0.291042 0.0493,-0.529167 -0.13865,-0.529167 -0.18794,0 -0.3417,0.238125 -0.3417,0.529167 0,0.291041 0.0624,0.529166 0.13864,0.529166 0.0763,0 0.23002,-0.238125 0.34171,-0.529166 z m -7.09494,-0.338688 c 0.33955,0.05493 0.61736,-0.04484 0.61736,-0.221693 0,-0.560366 -1.30477,-0.347002 -1.80888,0.295797 -0.42081,0.536568 -0.41492,0.565581 0.045,0.221697 0.29105,-0.217618 0.80698,-0.350729 1.14653,-0.295801 z m -5.37986,-0.329124 c 0,-0.270284 -0.23812,-0.5828 -0.52917,-0.694485 -0.59158,-0.227009 -0.62076,-0.16884 -0.31503,0.627888 0.26448,0.689218 0.8442,0.734949 0.8442,0.0666 z m 11.04941,-0.669001 c -0.10794,-0.174642 -0.34834,-0.15675 -0.54571,0.04062 -0.19403,0.194027 -0.23564,0.542307 -0.0925,0.773955 0.19776,0.319998 0.32886,0.31024 0.5457,-0.04061 0.15697,-0.253985 0.19859,-0.602265 0.0925,-0.773959 z m 1.65059,0.122912 c 0,-0.182577 -0.15875,-0.430072 -0.35278,-0.549988 -0.19402,-0.119916 -0.35277,0.02946 -0.35277,0.331957 0,0.302493 0.15875,0.549987 0.35277,0.549987 0.19403,0 0.35278,-0.14938 0.35278,-0.331956 z m -14.46389,-0.373599 c 0,-0.194028 -0.16812,-0.352778 -0.3736,-0.352778 -0.20547,0 -0.27548,0.15875 -0.15556,0.352778 0.11991,0.194028 0.28803,0.352778 0.37359,0.352778 0.0856,0 0.15557,-0.15875 0.15557,-0.352778 z m 7.69586,-2.235337 c 0.10162,-1.232196 0.0412,-1.337619 -0.70556,-1.231788 -0.84204,0.119329 -1.25173,1.225914 -0.84565,2.28413 0.40647,1.059247 1.43458,0.36177 1.55121,-1.052342 z m -2.51801,-1.711 c -0.28039,-0.836945 -0.62022,-2.037656 -0.75519,-2.668247 -0.13496,-0.63059 -0.39152,-1.146527 -0.57013,-1.146527 -0.17861,0 -0.34637,0.515937 -0.37279,1.146527 -0.031,0.740668 -0.0999,0.882657 -0.19459,0.401111 -0.0806,-0.40998 -0.52289,-0.91689 -0.98287,-1.126468 -0.71823,-0.327248 -0.9149,-0.26111 -1.3929,0.468423 -0.57872,0.883236 -0.69549,2.68772 -0.24767,3.827281 0.26937,0.685471 2.86607,1.206222 2.86607,0.574771 0,-0.175487 0.43656,0.08718 0.97014,0.583699 0.9329,0.868119 0.97435,0.875104 1.07993,0.181959 0.0604,-0.396444 -0.11961,-1.405583 -0.4,-2.242529 z m 5.21218,1.124115 c 0.10632,0 0.19331,0.24371 0.19331,0.541578 0,0.432261 0.14241,0.465359 0.70555,0.163977 0.38806,-0.207681 0.70556,-0.287056 0.70556,-0.176389 0,0.110667 0.3175,0.03129 0.70555,-0.176389 0.80059,-0.42846 0.96015,-2.339383 0.34314,-4.109348 -0.32105,-0.920977 -0.52271,-1.03771 -1.76687,-1.022781 -1.35408,0.01625 -1.61829,0.245055 -1.95441,1.692546 -0.0338,0.145521 -0.10008,0.383646 -0.14731,0.529167 -0.0472,0.14552 -0.0609,0.402114 -0.0304,0.570209 0.0305,0.168094 -0.20228,0.698984 -0.5173,1.179755 -0.3741,0.570954 -0.49097,1.199081 -0.33696,1.811042 l 0.23579,0.93691 0.83553,-0.970139 c 0.45954,-0.533576 0.92252,-0.970138 1.02884,-0.970138 z m 0.12716,-2.004877 c 0.25466,-0.101907 0.55893,-0.08937 0.67616,0.02785 0.11722,0.117225 -0.0911,0.200604 -0.46302,0.185286 -0.41097,-0.01693 -0.49456,-0.100521 -0.21314,-0.213136 z m 8.73771,0.32829 c -0.40702,-0.407015 -0.61583,0.230426 -0.33827,1.03264 l 0.28383,0.820335 0.12966,-0.82404 c 0.0713,-0.453223 0.0375,-0.916244 -0.0752,-1.028935 z m -10.90875,-0.616469 c 0.49394,-4.011826 0.0947,-5.468056 -1.49932,-5.468056 -0.61606,0 -1.00211,0.34974 -1.48167,1.342304 -0.68071,1.408913 -0.70259,1.18422 0.4812,4.942034 0.0906,0.287668 0.56777,0.421499 1.25775,0.352778 0.93986,-0.09361 1.13188,-0.274345 1.24204,-1.16906 z m -0.72509,-3.64537 c -0.0999,-0.16169 0.0494,-0.293982 0.33196,-0.293982 0.28251,0 0.51365,0.132292 0.51365,0.293982 0,0.161689 -0.14938,0.293981 -0.33196,0.293981 -0.18258,0 -0.41372,-0.132292 -0.51365,-0.293981 z m -7.82215,3.156176 c 0.10633,-0.172044 -0.0306,-0.498616 -0.3042,-0.725718 -0.40653,-0.337383 -0.46282,-0.280165 -0.30775,0.312806 0.20955,0.801313 0.32412,0.878624 0.61195,0.412912 z m 14.66498,-0.216362 c 0,-0.291041 -0.15377,-0.529166 -0.3417,-0.529166 -0.18794,0 -0.25033,0.238125 -0.13865,0.529166 0.11168,0.291042 0.26545,0.529167 0.34171,0.529167 0.0763,0 0.13864,-0.238125 0.13864,-0.529167 z m 3.88056,-0.881944 c -0.24626,-0.594526 -0.5231,-1.005608 -0.61519,-0.913516 -0.0921,0.09209 0.0436,0.644286 0.30161,1.227096 0.61181,1.382191 0.89761,1.096396 0.31358,-0.31358 z m -20.31105,-1.087425 c -0.33671,-0.372055 -0.82572,-0.676464 -1.08669,-0.676464 -0.82945,0 -0.5111,1.325419 0.49565,2.063569 l 0.97014,0.711307 0.11655,-0.710975 c 0.0641,-0.391035 -0.15895,-1.015382 -0.49565,-1.387437 z m 18.60757,1.209138 c 0.35483,-0.321114 0.64514,-0.887437 0.64514,-1.258495 0,-0.53785 -0.16095,-0.624423 -0.79375,-0.426943 -0.91696,0.286163 -1.30987,0.778795 -1.31751,1.651919 -0.007,0.77732 0.62819,0.791837 1.46612,0.03352 z m -16.04666,-1.560457 c 0.0514,-0.673626 0.0241,-0.705088 -0.12901,-0.148756 -0.10678,0.388056 -0.37421,0.836704 -0.5943,0.996996 -0.2644,0.192565 -0.22064,0.243033 0.129,0.148757 0.29104,-0.07848 0.55848,-0.527125 0.59431,-0.996997 z m -0.9768,-1.876756 c 0.27831,-1.147811 0.30097,-1.846019 0.0675,-2.0795 -0.23348,-0.233481 -0.4315,-0.03273 -0.58978,0.597902 -0.13106,0.52217 -0.1395,1.048187 -0.0188,1.168926 0.12074,0.12074 -0.0382,0.504309 -0.35319,0.852376 -0.33072,0.365442 -0.47523,0.886926 -0.34199,1.234147 0.32653,0.850911 0.74561,0.24958 1.23623,-1.773851 z m 11.92862,1.691252 c -0.11723,-0.117225 -0.4215,-0.129758 -0.67616,-0.02785 -0.28142,0.112616 -0.19783,0.196209 0.21313,0.213137 0.37189,0.01532 0.58025,-0.06806 0.46303,-0.185287 z m 3.97609,-0.123042 c 0,-0.184898 -0.14776,-0.700835 -0.32836,-1.146527 -0.1806,-0.445693 -0.43114,-1.284356 -0.55677,-1.863697 -0.19494,-0.898993 -0.27824,-0.964297 -0.5685,-0.445646 -0.22266,0.397877 -0.21148,0.84799 0.0324,1.303639 0.20485,0.382766 0.35151,0.821432 0.32592,0.974813 -0.1432,0.858072 0.10201,1.513597 0.56618,1.513597 0.29104,0 0.52916,-0.15128 0.52916,-0.336179 z M 117.64109,77.2927 c 0.66794,-1.309279 0.67034,-1.454644 0.09,-5.444014 -0.32794,-2.254348 -0.71455,-4.217107 -0.85913,-4.361687 -0.3362,-0.336197 -1.31775,0.981514 -1.05174,1.411933 0.10979,0.17764 0.033,0.21999 -0.1707,0.09411 -0.47607,-0.294226 -0.79703,0.555386 -0.79703,2.109806 0,0.67468 -0.11906,1.155082 -0.26458,1.06756 -0.14553,-0.08752 -0.29115,0.934985 -0.32362,2.272236 -0.0519,2.137191 0.21553,2.992608 0.67737,2.166782 0.0814,-0.145521 0.0869,-0.03298 0.0122,0.250085 -0.12431,0.471199 1.13702,1.75206 1.74355,1.770543 0.14158,0.0043 0.56624,-0.597495 0.94368,-1.337354 z m 6.31902,0.344545 1.1208,-1.000655 -0.4814,-3.85004 c -0.48907,-3.91129 -0.50363,-5.163174 -0.0719,-6.182597 0.13245,-0.312767 0.19255,-1.493285 0.13356,-2.623374 -0.0953,-1.826587 -0.16706,-1.99845 -0.64594,-1.547999 -0.29628,0.27869 -1.05034,0.868648 -1.67569,1.311019 l -1.13701,0.804311 -0.0352,-1.157089 c -0.0193,-0.636399 -0.16226,-1.553964 -0.31761,-2.039033 -0.22081,-0.689492 -0.29012,-0.470182 -0.31761,1.005018 -0.0347,1.861411 0.77557,4.286649 1.43215,4.286649 0.36242,0 0.26775,1.028474 -0.54895,5.963895 -0.5393,3.259097 -0.53551,3.342163 0.21319,4.674305 0.41924,0.745934 0.86318,1.356244 0.98653,1.356244 0.12336,0 0.72864,-0.450294 1.34509,-1.000654 z m -0.872,-7.304838 c -0.11489,-0.29941 -0.13007,-0.623207 -0.0337,-0.719548 0.0963,-0.09634 0.25984,0.14863 0.36333,0.544381 0.21984,0.840644 -0.0244,0.970453 -0.3296,0.175167 z m 0.46623,-2.160249 c -0.12935,-0.129352 -0.23518,-0.399227 -0.23518,-0.599722 0,-0.221052 0.16431,-0.200223 0.41745,0.05292 0.2296,0.229599 0.33543,0.499474 0.23518,0.599722 -0.10024,0.100248 -0.2881,0.07643 -0.41745,-0.05292 z m -9.87197,6.871817 c -0.11262,-0.281422 -0.19621,-0.197829 -0.21314,0.213137 -0.0153,0.371886 0.0681,0.580246 0.18528,0.463021 0.11723,-0.117225 0.12976,-0.421496 0.0279,-0.676158 z m 12.10623,0.06615 c 0,-0.194028 -0.16812,-0.352778 -0.3736,-0.352778 -0.20548,0 -0.27548,0.15875 -0.15557,0.352778 0.11992,0.194028 0.28804,0.352778 0.3736,0.352778 0.0856,0 0.15557,-0.15875 0.15557,-0.352778 z m -5.05363,-1.295669 c -0.0605,-0.786952 -0.25009,-0.951199 -1.1464,-0.993122 -0.87227,-0.0408 -1.06998,0.08657 -1.05292,0.678308 0.0186,0.645331 0.54676,0.96195 2.02834,1.215967 0.1339,0.02296 0.21084,-0.382563 0.17098,-0.901153 z M 117.91918,67.7967 c -0.0894,-0.343241 -0.16851,-0.147825 -0.1757,0.434259 -0.007,0.582083 0.066,0.862917 0.16263,0.624075 0.0966,-0.238843 0.10252,-0.715093 0.0131,-1.058334 z m 3.52778,0 c -0.0894,-0.343241 -0.16851,-0.147825 -0.1757,0.434259 -0.007,0.582083 0.066,0.862917 0.16263,0.624075 0.0966,-0.238843 0.10252,-0.715093 0.0131,-1.058334 z m -6.30049,0.08438 c -0.14841,-0.293172 2.60449,-1.584912 2.93819,-1.378678 0.13577,0.08391 0.36173,-0.0333 0.50213,-0.260472 0.17036,-0.275658 0.10132,-0.317893 -0.20759,-0.126979 -0.35782,0.221147 -0.39896,0.09342 -0.18131,-0.562854 0.15485,-0.466903 0.33708,-1.801414 0.40497,-2.965581 0.10148,-1.740299 0.0569,-1.959847 -0.25095,-1.234722 -0.20591,0.485069 -0.31693,1.386826 -0.24672,2.003903 0.11374,0.999583 -0.23058,1.355983 -0.79058,0.818319 -0.10105,-0.09701 -0.78844,-0.732014 -1.52753,-1.411111 l -1.34381,-1.234722 0.18666,2.645833 c 0.10267,1.455208 0.1943,3.029928 0.20362,3.499377 0.009,0.469449 0.11,0.76049 0.22373,0.646759 0.11373,-0.113731 0.15387,-0.311313 0.0892,-0.439072 z m 6.88481,-4.953084 c -0.27983,-0.729231 -0.47601,-0.643298 -0.47601,0.208507 0,0.399506 0.15181,0.632547 0.33737,0.517869 0.18555,-0.114679 0.24794,-0.441548 0.13864,-0.726376 z m -4.47571,-0.606063 c -0.0979,-0.242535 -0.17793,-0.0441 -0.17793,0.440972 0,0.485069 0.0801,0.683507 0.17793,0.440972 0.0979,-0.242535 0.0979,-0.63941 0,-0.881944 z m -5.17253,-5.203473 c 0,-0.194027 -0.15875,-0.352777 -0.35277,-0.352777 -0.19403,0 -0.35278,0.15875 -0.35278,0.352777 0,0.194028 0.15875,0.352778 0.35278,0.352778 0.19402,0 0.35277,-0.15875 0.35277,-0.352778 z m 18.49377,6.879167 c 2.9e-4,-4.074583 0.0516,-5.693143 0.11412,-3.596798 0.0625,2.096344 0.0622,5.430094 -5.3e-4,7.408333 -0.0628,1.978239 -0.11388,0.263049 -0.11359,-3.811535 z m -22.69925,5.967824 c 0.0169,-0.410966 0.10052,-0.494559 0.21314,-0.213136 0.10191,0.254661 0.0894,0.558932 -0.0279,0.676157 -0.11723,0.117225 -0.20061,-0.09113 -0.18529,-0.463021 z m 21.20959,-4.821296 c -0.0531,-4.168686 -0.1809,-5.557599 -0.51174,-5.561652 -0.31411,-0.0038 -0.32645,-0.07997 -0.0429,-0.264584 0.21894,-0.142549 0.46148,-0.936146 0.53897,-1.763549 0.13636,-1.455922 0.10178,-1.515168 -1.07376,-1.83975 -0.99581,-0.274956 -1.2956,-0.226374 -1.66394,0.269646 -0.3673,0.494635 -0.3582,0.697748 0.0499,1.113196 0.27456,0.279492 0.61745,0.389923 0.76197,0.245401 0.14452,-0.144521 0.0338,-0.404252 -0.24597,-0.57718 -0.2798,-0.172929 -0.39049,-0.43266 -0.24597,-0.577181 0.14453,-0.144522 0.49658,-0.02896 0.78234,0.256806 0.45758,0.457578 0.45279,0.614927 -0.0402,1.318736 -0.44401,0.633909 -0.66261,0.713804 -1.05714,0.386372 -0.27356,-0.227036 -0.50243,-0.671166 -0.5086,-0.986957 -0.01,-0.509648 -0.0639,-0.504794 -0.47986,0.0432 -0.60802,0.800964 -1.05048,0.800964 -0.5897,0 1.20652,-2.097299 1.51049,-2.256109 3.45786,-1.806603 1.16687,0.269346 1.7368,0.560432 1.57712,0.8055 -0.13752,0.211058 -0.33725,3.558742 -0.44385,7.439297 l -0.19382,7.055556 z m -21.20959,2.351852 c 0.0169,-0.410966 0.10052,-0.494559 0.21314,-0.213137 0.10191,0.254662 0.0894,0.558933 -0.0279,0.676158 -0.11723,0.117225 -0.20061,-0.09114 -0.18529,-0.463021 z m 0,-5.997222 c 0.0169,-0.410966 0.10052,-0.49456 0.21314,-0.213137 0.10191,0.254661 0.0894,0.558932 -0.0279,0.676157 -0.11723,0.117225 -0.20061,-0.09113 -0.18529,-0.46302 z M 120.226,58.529566 c 0,-0.679098 0.0726,-0.95691 0.16133,-0.617362 0.0887,0.339549 0.0887,0.895174 0,1.234723 -0.0887,0.339548 -0.16133,0.06174 -0.16133,-0.617361 z m -1.4651,-1.264121 c 0.0169,-0.410966 0.10052,-0.494559 0.21313,-0.213136 0.10191,0.254661 0.0894,0.558932 -0.0279,0.676157 -0.11722,0.117225 -0.2006,-0.09113 -0.18529,-0.463021 z m 1.48416,-1.734491 c 0.003,-0.970139 0.0712,-1.325143 0.15224,-0.788899 0.0811,0.536244 0.0789,1.329994 -0.005,1.763889 -0.0837,0.433894 -0.15008,-0.0049 -0.14743,-0.97499 z m -1.48416,-1.309007 c 0.0153,-0.638241 0.11849,-0.922312 0.22928,-0.63127 0.11079,0.291041 0.31881,0.608541 0.46228,0.705555 0.14346,0.09701 0.0403,0.381086 -0.22929,0.63127 -0.41142,0.38184 -0.48565,0.268548 -0.46227,-0.705555 z m 0.76589,-1.061834 c -0.64271,-0.30997 -0.79375,-0.674622 -0.79375,-1.916402 0,-1.400644 0.0765,-1.53359 0.88195,-1.53359 0.83384,0 0.88194,0.105833 0.88194,1.940278 0,1.067153 -0.0397,1.929533 -0.0882,1.916402 -0.0485,-0.01313 -0.44538,-0.196142 -0.88195,-0.406688 z"
         id="path1004" />
      <path
         style="fill:#333333;fill-opacity:1;stroke-width:0.352778"
         d="m 109.20804,94.377655 c 0,-0.268411 -0.30562,-0.567944 -0.67916,-0.665625 -0.47644,-0.124594 -0.62312,-0.03157 -0.49142,0.31163 0.10326,0.269081 0.007,0.489239 -0.21386,0.489239 -0.79123,0 -0.86445,-1.156434 -0.1118,-1.765892 0.40595,-0.328715 0.80389,-1.137427 0.88432,-1.797135 l 0.14623,-1.199473 0.0565,1.302096 c 0.031,0.716153 -0.11737,1.409527 -0.32982,1.540831 -0.33715,0.208372 1.22876,1.557468 1.81589,1.564471 0.10719,0.0014 0.47397,-0.773758 0.81506,-1.7223 0.54007,-1.501878 0.58791,-2.45872 0.37039,-7.408334 -0.18254,-4.153639 -0.14191,-5.683708 0.15091,-5.683708 0.22038,0 0.50279,-0.638519 0.62758,-1.41893 0.26727,-1.671369 0.68281,-2.076722 0.96723,-0.943503 0.22451,0.894492 -0.15399,2.697991 -0.56842,2.708501 -0.14552,0.0037 -0.38365,0.0091 -0.52917,0.01211 -0.14552,0.003 -0.0283,0.154776 0.26043,0.337344 0.38491,0.24336 0.6497,0.12424 0.99225,-0.446374 0.46132,-0.768458 0.46414,-0.767146 0.22335,0.103628 -0.7739,2.798633 -0.42061,5.716661 0.61465,5.076835 0.18426,-0.113885 0.64253,0.07122 1.01836,0.411339 0.39492,0.357397 0.68332,0.446431 0.68332,0.210948 0,-0.224102 0.13446,-0.407455 0.2988,-0.407455 0.444,0 1.96036,1.386219 1.74831,1.598263 -0.10047,0.100472 -0.38349,-0.05928 -0.62892,-0.355014 -0.68402,-0.824198 -1.31221,-0.643703 -1.70765,0.49065 -0.4331,1.24241 -0.27322,1.441101 1.15965,1.441101 1.50441,0 1.86905,-0.477072 1.69499,-2.217632 -0.15953,-1.595333 0.12805,-1.740359 0.33827,-0.170585 0.1315,0.981957 0.62433,1.782166 0.62433,1.013728 0,-0.238563 0.30039,-0.384083 0.66752,-0.323381 0.36714,0.0607 0.97609,-0.168465 1.35321,-0.509266 0.37713,-0.340801 1.38643,-0.707574 2.2429,-0.815051 2.43258,-0.305264 2.43915,-0.311709 2.43915,-2.391601 0,-1.31392 0.17471,-2.053152 0.56102,-2.373761 0.51185,-0.424798 0.50986,-0.503016 -0.0227,-0.89241 -0.35503,-0.259599 -0.57225,-0.888784 -0.55449,-1.60606 0.0602,-2.430378 5.3e-4,-2.946346 -0.35441,-3.065648 -0.23936,-0.08045 -0.22349,-0.292367 0.0462,-0.617361 0.313,-0.377139 0.31155,-0.494861 -0.006,-0.494861 -0.22924,0 -0.33478,-0.132715 -0.23453,-0.294922 0.2273,-0.367778 1.51502,-0.293068 1.88066,0.10911 0.14947,0.164412 0.0843,0.191514 -0.14483,0.06023 -0.22913,-0.131286 -0.52412,-0.06473 -0.65553,0.147908 -0.16274,0.263311 0.23999,0.349529 1.26278,0.270338 1.02612,-0.07945 1.5539,0.03423 1.66649,0.358956 0.12875,0.37134 0.0118,0.393333 -0.53522,0.100606 -0.38499,-0.206042 -0.80023,-0.274374 -0.92276,-0.151849 -0.41627,0.416273 -0.22489,1.70905 0.38107,2.574193 l 0.60385,0.862113 0.24293,-0.871813 c 0.22583,-0.810408 0.24541,-0.793717 0.2781,0.236972 0.0209,0.660456 -0.16803,1.18676 -0.46738,1.301628 -0.67677,0.259702 -1.61412,-1.235293 -1.61412,-2.574389 0,-0.716589 -0.17503,-1.070746 -0.52917,-1.070746 -0.29104,0 -0.52916,0.150937 -0.52916,0.335414 0,0.78341 0.81286,4.105424 1.089,4.450537 0.42611,0.532545 0.45476,1.846974 0.14632,6.712167 -0.22822,3.599756 -0.17538,4.552442 0.33823,6.09878 0.53163,1.600603 0.70295,1.802695 1.3532,1.596313 0.40948,-0.129964 0.95494,-0.44673 1.21214,-0.703929 0.2572,-0.2572 0.66148,-0.421023 0.8984,-0.364057 0.23692,0.05697 0.3117,0.037 0.16618,-0.04439 -0.14552,-0.08138 -0.2379,-1.365053 -0.20528,-2.852596 0.0346,-1.580089 0.11891,-2.119817 0.20267,-1.298099 0.0788,0.773596 0.32997,1.525227 0.55806,1.670293 0.30986,0.197087 0.30322,0.265127 -0.0263,0.269163 -0.24253,0.0028 -0.44097,0.252895 -0.44097,0.555388 0,0.302493 0.15875,0.451873 0.35278,0.331957 0.19403,-0.119916 0.35278,-0.04991 0.35278,0.155568 0,0.205479 -0.19844,0.376029 -0.44098,0.379 -0.30619,0.0037 -0.28617,0.103357 0.0655,0.325892 0.41975,0.265607 0.42746,0.41571 0.045,0.87654 -0.38199,0.460276 -0.37808,0.55643 0.0227,0.558229 0.26629,0.0011 0.0295,0.239321 -0.5263,0.529166 -1.27919,0.667142 -1.66511,0.660467 -0.77419,-0.01341 0.5482,-0.414623 0.57441,-0.517934 0.13139,-0.517934 -0.30437,0 -0.75102,0.238125 -0.99257,0.529166 -0.24154,0.291042 -0.86539,0.529167 -1.38633,0.529167 -0.83349,0 -0.93836,-0.127004 -0.87389,-1.058333 0.084,-1.213863 -0.3619,-1.385838 -0.91478,-0.352778 -0.25601,0.478363 -0.26001,0.705555 -0.0124,0.705555 0.20086,0 0.36519,0.186422 0.36519,0.414271 0,0.227852 -0.35897,0.07704 -0.79771,-0.335139 -0.43874,-0.412175 -1.44645,-0.853147 -2.23936,-0.979939 l -1.44164,-0.230526 1.02848,-1.898883 c 0.56566,-1.044385 0.91768,-2.07815 0.78227,-2.297254 -0.1498,-0.242376 -0.83849,-0.331611 -1.75874,-0.227884 -1.07562,0.121236 -1.6706,0.01242 -2.05975,-0.376727 -0.74912,-0.749131 -1.96723,-0.781918 -2.41495,-0.06501 -0.29303,0.469229 -0.65508,0.54042 -1.73969,0.342085 -1.93681,-0.354171 -2.25332,0.355917 -1.13889,2.555134 0.47066,0.928818 1.05152,1.707018 1.29079,1.729331 0.23926,0.02233 -0.19998,0.171915 -0.97609,0.332447 -2.73292,0.565284 -2.60925,0.705189 -2.72125,-3.078448 -0.0693,-2.34012 -0.23941,-3.456884 -0.54194,-3.557175 -0.63338,-0.209977 -0.57788,3.58249 0.0844,5.765567 0.62477,2.059503 0.60721,1.90815 0.22135,1.90815 -0.1714,0 -0.39884,-0.333473 -0.50542,-0.741052 -0.10671,-0.408051 -0.36299,-0.636481 -0.57032,-0.508345 -0.51856,0.320491 -0.47425,1.503944 0.0645,1.721315 0.24254,0.09786 -0.23371,0.190469 -1.05833,0.205786 -1.05477,0.01958 -1.49931,-0.116843 -1.49931,-0.46017 z m 17.92728,-5.074253 c 0.13604,-2.584708 0.0882,-2.891402 -0.42022,-2.696285 -0.47598,0.182651 -0.57189,0.799688 -0.56299,3.621998 0.009,2.755551 0.0885,3.267798 0.42022,2.696284 0.22522,-0.388055 0.47857,-2.017956 0.56299,-3.621997 z m -11.97097,3.47836 c 0.40765,-0.258173 0.37853,-0.546985 -0.17638,-1.749386 -0.82177,-1.780611 -1.54659,-1.898946 -1.54659,-0.252497 0,2.127652 0.53778,2.752492 1.72297,2.001883 z m 10.55956,-1.219313 c 0.20107,-2.442845 -0.23,-2.693324 -1.28991,-0.749508 -0.81735,1.498978 -0.87955,1.795819 -0.41981,2.003609 1.09667,0.49567 1.59584,0.129526 1.70972,-1.254101 z m -11.06749,-3.014937 c 0.30444,-0.492588 -0.17215,-1.442946 -0.72362,-1.442946 -0.289,0 -0.49142,0.363283 -0.49142,0.881944 0,0.866571 0.79837,1.235192 1.21504,0.561002 z M 125.7886,87.98651 c 0,-0.990921 -0.40913,-1.135016 -1.04551,-0.368229 -0.49043,0.590938 -0.20718,1.250174 0.53716,1.250174 0.30705,0 0.50835,-0.349233 0.50835,-0.881945 z m -2.04954,-0.06931 c 0.30961,-0.155978 -0.39672,-2.223749 -0.75962,-2.223749 -0.22036,0 -1.05884,0.567168 -2.47229,1.672325 -0.62658,0.489913 2.34694,0.99725 3.23191,0.551424 z m -8.38952,-2.275721 c -0.10225,-0.165442 -0.57342,-0.300806 -1.04704,-0.300806 -0.47362,0 -0.86112,-0.178188 -0.86112,-0.395974 0,-0.273581 -0.16356,-0.260229 -0.52917,0.0432 -0.7629,0.633148 -0.66784,0.862602 0.61736,1.490253 1.03575,0.505827 1.18805,0.506988 1.5762,0.01203 0.23632,-0.301343 0.34601,-0.68326 0.24377,-0.848703 z m 10.60392,0.698592 c 0.65225,-0.297183 0.84574,-0.594053 0.69557,-1.067195 -0.1376,-0.433527 -0.0497,-0.622618 0.25951,-0.558426 0.34098,0.07078 0.49624,-0.509416 0.57351,-2.14312 0.0811,-1.715215 -0.002,-2.204735 -0.35278,-2.088937 -0.28124,0.09272 -0.50102,0.887091 -0.56804,2.053093 -0.12664,2.203168 -0.40158,2.642782 -1.83173,2.928814 -0.7495,0.149899 -0.985,0.360553 -0.83629,0.748069 0.2478,0.64576 0.84235,0.682611 2.06025,0.127702 z M 112.73582,82.75364 c 0,-1.80204 -0.10793,-2.23426 -0.55794,-2.23426 -0.45411,0 -0.53926,0.366566 -0.45755,1.969677 0.1112,2.181535 0.198,2.498842 0.68353,2.498842 0.18258,0 0.33196,-1.005417 0.33196,-2.234259 z m 7.76111,9.818981 c 0,-0.269853 0.33017,-0.368211 0.88195,-0.262731 0.48507,0.09273 0.88194,0.210954 0.88194,0.262731 0,0.05178 -0.39687,0.170004 -0.88194,0.262732 -0.55178,0.10548 -0.88195,0.0071 -0.88195,-0.262732 z m -13.15324,-2.389924 c 0.21766,-3.536802 0.39236,-3.759109 0.42539,-0.541313 0.0153,1.492264 -0.10942,2.79805 -0.2772,2.901742 -0.16778,0.103695 -0.23447,-0.958498 -0.14819,-2.360429 z m 10.33102,2.330806 c 0.29104,-0.122686 0.66032,-0.397697 0.82061,-0.611138 0.18745,-0.249605 0.23996,-0.199263 0.14715,0.14109 -0.0794,0.291041 -0.44863,0.566053 -0.8206,0.611141 -0.47521,0.0576 -0.51897,0.01564 -0.14716,-0.141093 z m 12.84528,-0.247516 c -0.10194,-0.265663 -0.134,-1.337225 -0.0712,-2.38125 l 0.1141,-1.898227 0.17052,2.381991 c 0.17162,2.397563 0.12786,2.786736 -0.21338,1.897486 z m -9.99521,-1.839429 c 0.0169,-0.410969 0.10053,-0.494559 0.21314,-0.213138 0.10191,0.25466 0.0894,0.558931 -0.0279,0.676159 -0.11723,0.117224 -0.2006,-0.09114 -0.18529,-0.463021 z m -2.10359,-0.764353 c -0.036,-0.697678 0.12987,-0.79375 1.37019,-0.79375 0.77611,0 1.41111,0.14877 1.41111,0.330598 0,0.181829 -0.54046,0.242895 -1.20102,0.1357 -0.97237,-0.157794 -1.23323,-0.06962 -1.37019,0.463151 -0.14022,0.54543 -0.17617,0.522207 -0.21009,-0.135699 z m -9.83686,-1.146528 c 0,-0.679097 0.0726,-0.95691 0.16134,-0.617361 0.0887,0.339548 0.0887,0.895173 0,1.234722 -0.0887,0.339549 -0.16134,0.06174 -0.16134,-0.617361 z m -1.11232,-2.322453 c 0.0169,-0.410968 0.10052,-0.494559 0.21313,-0.213137 0.10191,0.254659 0.0894,0.55893 -0.0279,0.676158 -0.11722,0.117225 -0.2006,-0.09114 -0.18528,-0.463021 z m 22.93055,0 c 0.0169,-0.410968 0.10052,-0.494559 0.21314,-0.213137 0.10191,0.254659 0.0894,0.55893 -0.0279,0.676158 -0.11723,0.117225 -0.20061,-0.09114 -0.18529,-0.463021 z m -9.82378,-0.852547 c 0,-0.679097 0.0726,-0.95691 0.16133,-0.617361 0.0887,0.339548 0.0887,0.895173 0,1.234722 -0.0887,0.339549 -0.16133,0.06174 -0.16133,-0.617361 z m -2.46753,-1.845352 c -0.2175,-0.440265 -0.50285,-1.356106 -0.63412,-2.035204 -0.39235,-2.029756 -0.7702,-2.531975 -1.5422,-2.04985 -0.53072,0.331439 -0.85639,0.28407 -1.65799,-0.241156 -0.62375,-0.408699 -0.82736,-0.710341 -0.54336,-0.805006 0.2498,-0.08327 0.76347,0.128508 1.14149,0.47061 0.37801,0.342101 0.80539,0.495409 0.94972,0.340683 0.14433,-0.154725 0.0792,-0.347127 -0.1448,-0.427559 -0.22397,-0.08043 -0.795,-0.495261 -1.26896,-0.921842 -0.67502,-0.607542 -0.80461,-0.966704 -0.59808,-1.657546 0.22551,-0.754349 0.26874,-0.776658 0.29882,-0.154196 0.0619,1.281914 3.21016,3.666391 3.21016,2.431392 0,-0.287584 0.15869,-0.79854 0.35263,-1.135455 0.19394,-0.336916 0.53643,-1.088825 0.76108,-1.670908 0.30864,-0.799703 0.44421,-0.907964 0.55479,-0.443012 0.0805,0.338427 -0.15848,1.052802 -0.53103,1.5875 -0.98999,1.420858 -1.13571,2.390464 -0.68335,4.547071 l 0.40404,1.926275 1.41358,-0.10475 c 1.31328,-0.09732 1.44361,-0.204874 1.83686,-1.515862 0.23281,-0.776111 0.43549,-1.191404 0.4504,-0.922874 0.0149,0.268531 -0.15422,1.093483 -0.37585,1.833226 -0.37279,1.244247 -0.48116,1.329351 -1.44682,1.136219 -0.62758,-0.125516 -1.14509,-0.04497 -1.29771,0.201977 -0.16881,0.273148 -0.38633,0.142587 -0.6493,-0.389733 z m -10.27821,-0.644861 c -0.0199,-0.496492 0.19697,-1.210867 0.48184,-1.5875 0.28487,-0.376633 0.54389,-1.240412 0.57561,-1.919509 l 0.0577,-1.234723 0.22323,1.234723 c 0.15218,0.841731 0.0717,1.352491 -0.25287,1.604735 -0.26186,0.203507 -0.60509,0.917882 -0.76273,1.5875 -0.2402,1.02028 -0.29247,1.071266 -0.32274,0.314774 z m 23.28815,0.09655 c -0.0225,-0.443389 -0.29851,-1.199297 -0.61335,-1.679794 l -0.57243,-0.873633 -0.66229,0.763634 c -0.36426,0.419999 -0.6623,0.605198 -0.6623,0.411554 0,-0.193644 0.30855,-0.631312 0.68566,-0.972596 0.37712,-0.341283 0.73431,-1.027483 0.79375,-1.524887 0.10315,-0.863005 0.1323,-0.874367 0.63726,-0.248387 0.30548,0.378687 0.34276,0.543996 0.0882,0.391058 -0.62135,-0.373296 -0.56348,0.646635 0.1182,2.083169 0.30755,0.6481 0.48471,1.465842 0.3937,1.817204 -0.12946,0.49984 -0.17437,0.463434 -0.20639,-0.167322 z m -24.18352,-0.884747 c 0.13248,-0.347917 0.32974,-0.543709 0.43835,-0.435093 0.10862,0.108616 2.3e-4,0.393275 -0.24087,0.632576 -0.34841,0.345816 -0.38893,0.305295 -0.19748,-0.197483 z m 24.67176,-0.602147 c -0.301,-0.582083 -0.46791,-1.058333 -0.37089,-1.058333 0.097,0 0.42266,0.47625 0.72367,1.058333 0.30101,0.582084 0.46791,1.058334 0.3709,1.058334 -0.097,0 -0.42267,-0.47625 -0.72368,-1.058334 z m -23.8125,-1.390291 c 0,-0.182577 0.15694,-0.428947 0.34874,-0.547489 0.19998,-0.123592 0.25912,0.01801 0.13865,0.331958 -0.23453,0.611158 -0.48739,0.722978 -0.48739,0.215531 z m 17.6408,-0.370029 c -0.31923,-0.596486 -0.48015,-0.636751 -1.07074,-0.267918 -0.5512,0.34423 -0.84108,0.342872 -1.40061,-0.0066 -0.60449,-0.377509 -0.70778,-0.351764 -0.72104,0.179724 -0.009,0.341192 -0.23949,-0.0086 -0.51327,-0.777256 -0.27379,-0.768684 -0.44007,-1.455335 -0.36951,-1.525892 0.0706,-0.07056 0.23285,0.201179 0.36066,0.603857 0.25419,0.800899 1.41623,0.99539 1.73967,0.291169 0.11139,-0.242535 0.10929,-0.06919 -0.005,0.385205 -0.16696,0.665759 -0.0815,0.80197 0.44018,0.701505 0.35606,-0.06857 0.70415,-0.419464 0.77353,-0.779763 0.0775,-0.40247 -0.0214,-0.563892 -0.25649,-0.418599 -0.2379,0.14703 -0.30317,0.02938 -0.17256,-0.310998 0.11555,-0.301119 0.35186,-0.547489 0.52513,-0.547489 0.17327,0 0.31503,-0.423333 0.31503,-0.940741 0,-1.118105 0.16711,-1.006973 0.48627,0.32338 0.17461,0.727882 0.10168,0.970139 -0.29208,0.970139 -0.33392,0 -0.44683,0.203243 -0.31041,0.558745 0.17435,0.454351 0.27737,0.470829 0.55137,0.08819 0.24817,-0.346546 0.28205,-0.301122 0.12856,0.172366 -0.11462,0.353604 -0.0446,0.948917 0.15553,1.322916 0.20016,0.374 0.28455,0.68 0.18753,0.68 -0.097,0 -0.34545,-0.315894 -0.55208,-0.701987 z m -15.16026,-0.995373 c -0.28457,-0.304641 -0.55219,-0.880798 -0.59469,-1.280349 -0.0425,-0.399552 0.009,-0.518316 0.11335,-0.26392 0.29504,0.715838 1.52858,-0.564535 1.52858,-1.586619 0,-0.966776 -0.98471,-1.50613 -1.4311,-0.783856 -0.21947,0.355113 -0.28582,0.279052 -0.24375,-0.279426 0.0543,-0.720976 1.32207,-1.467228 1.32207,-0.778221 0,0.175863 0.43657,0.31732 0.97014,0.314349 0.6784,-0.0038 0.82621,-0.0966 0.49151,-0.308681 -0.6178,-0.391456 -0.0249,-0.766736 0.923,-0.584193 0.91685,0.176571 1.13196,-0.574259 1.13831,-3.973238 0.003,-1.418153 0.12828,-2.502156 0.27918,-2.408897 0.52674,0.325546 -0.1306,8.338744 -0.68405,8.338744 -0.17974,0 -0.30103,-0.198437 -0.26953,-0.440972 0.1199,-0.923321 -0.0406,-1.355766 -0.41678,-1.12325 -0.22528,0.139234 -0.2534,0.33457 -0.0665,0.461792 0.18838,0.128202 0.13249,0.589621 -0.13353,1.10243 -0.44327,0.854516 -0.45766,0.857603 -0.4627,0.09927 -0.004,-0.549726 -0.1627,-0.722241 -0.53436,-0.579618 -0.29105,0.111683 -0.53158,0.543263 -0.53453,0.959067 -0.003,0.415803 -0.20153,1.411539 -0.4413,2.212745 -0.39003,1.30331 -0.49044,1.3984 -0.95336,0.902846 z m 9.86669,-3.04432 c 0,-0.279591 0.15875,-0.60646 0.35277,-0.726376 0.19403,-0.119916 0.3712,-0.724597 0.3937,-1.343736 0.0242,-0.664664 0.10978,-0.858433 0.20904,-0.473117 0.23101,0.896693 -0.20591,3.051576 -0.61872,3.051576 -0.18524,0 -0.33679,-0.228756 -0.33679,-0.508347 z m 4.6192,-1.784709 c 0.0102,-1.234202 0.0531,-1.307702 0.34218,-0.586274 0.20839,0.520002 0.20409,1.041508 -0.0116,1.411112 -0.26092,0.447043 -0.33942,0.251158 -0.33054,-0.824838 z M 118.01221,73.4641 c -0.0957,-0.808296 -0.0521,-1.39424 0.097,-1.302096 0.14909,0.09214 0.26865,-0.199023 0.26567,-0.647036 -0.004,-0.581016 -0.091,-0.679583 -0.30383,-0.343776 -0.36381,0.573928 -0.74873,-0.617576 -0.72192,-2.234683 0.0173,-1.042521 0.0227,-1.0455 0.3607,-0.19942 0.18873,0.472403 0.26303,1.067716 0.1651,1.322917 -0.0979,0.255202 -0.0336,0.464003 0.14289,0.464003 0.17652,0 0.47204,-0.674687 0.6567,-1.499305 0.26126,-1.16663 0.34415,-1.284045 0.37354,-0.529167 0.0417,1.070495 1.09229,1.406967 1.10152,0.352778 0.005,-0.527596 0.0551,-0.54042 0.34737,-0.08819 0.25525,0.394974 0.33706,0.216049 0.32258,-0.705555 -0.0158,-1.008887 -0.0748,-1.105674 -0.32258,-0.529167 -0.24887,0.579156 -0.30763,0.486093 -0.32798,-0.519467 -0.0247,-1.218555 -0.0218,-1.220796 0.53593,-0.424476 0.46148,0.658857 0.50831,1.250313 0.26458,3.34169 -0.29458,2.527763 -0.30206,2.541716 -1.42187,2.650136 -0.97792,0.09468 -1.14119,0.256799 -1.24351,1.234723 -0.10932,1.044901 -0.13028,1.020209 -0.29187,-0.343904 z m 2.30833,-2.415756 c 0,-0.800741 -0.16121,-1.053502 -0.67192,-1.053502 -0.69161,0 -1.02228,0.898952 -0.66916,1.819178 0.35566,0.926831 1.34108,0.364216 1.34108,-0.765676 z m 9.7122,1.768721 c 0,-0.194028 0.15389,-0.590903 0.34197,-0.881945 0.18809,-0.291041 0.34198,-0.370416 0.34198,-0.176389 0,0.194028 -0.15389,0.590903 -0.34198,0.881945 -0.18808,0.291041 -0.34197,0.370416 -0.34197,0.176389 z m -8.66079,-2.240816 c 0.0757,-1.038421 0.22729,-1.977692 0.33686,-2.087269 0.28502,-0.285015 0.21076,0.920445 -0.15796,2.564196 -0.30102,1.341956 -0.30979,1.318583 -0.1789,-0.476927 z m 3.00337,0.388732 c -0.001,-0.727604 -0.2405,-1.779894 -0.53179,-2.338422 -0.39997,-0.766933 -0.41308,-0.918798 -0.0536,-0.620422 0.26183,0.217296 0.5805,0.290628 0.70817,0.162959 0.12767,-0.127668 0.23213,0.746834 0.23213,1.943339 0,1.196505 -0.0794,2.175463 -0.17639,2.175463 -0.097,0 -0.17737,-0.595313 -0.17856,-1.322917 z m -14.7588,-0.79375 c 0,-0.485069 0.0801,-0.683507 0.17794,-0.440972 0.0979,0.242535 0.0979,0.63941 0,0.881945 -0.0979,0.242534 -0.17794,0.0441 -0.17794,-0.440973 z m 19.80917,-1.5875 c 0.002,-1.164166 0.0678,-1.597886 0.14636,-0.963821 0.0785,0.634065 0.0769,1.586565 -0.004,2.116667 -0.0805,0.530102 -0.14474,0.01132 -0.14276,-1.152846 z M 109.58867,67.496 c 0.0169,-0.410966 0.10052,-0.494559 0.21314,-0.213137 0.10191,0.254662 0.0894,0.558933 -0.0279,0.676158 -0.11723,0.117225 -0.20061,-0.09114 -0.18529,-0.463021 z m 8.38041,-0.243605 c -0.10986,-0.538207 -0.0378,-1.078673 0.16023,-1.201035 0.20614,-0.127405 0.2524,-0.04843 0.10826,0.184809 -0.13845,0.224006 -0.0664,0.407285 0.16012,0.407285 0.25139,0 0.33394,-0.310391 0.21189,-0.796681 -0.10998,-0.438175 -0.0502,-1.033487 0.13274,-1.322917 0.23554,-0.37256 0.33428,-0.03081 0.3381,1.170278 0.003,0.949886 -0.1381,1.607823 -0.32068,1.494987 -0.17934,-0.11084 -0.38566,0.07823 -0.45849,0.420152 -0.092,0.431894 -0.1934,0.322946 -0.33217,-0.356878 z m -1.16125,0.12099 c -0.24097,-0.389901 0.31553,-0.810913 0.64129,-0.485156 0.33541,0.335417 0.2729,0.813558 -0.10637,0.813558 -0.18257,0 -0.42329,-0.147781 -0.53492,-0.328402 z m 7.81799,-1.259098 c 0.11211,-0.970139 0.26085,-1.830035 0.33053,-1.91088 0.26373,-0.305984 0.0634,2.295225 -0.22864,2.969213 -0.1967,0.453919 -0.23304,0.07646 -0.10189,-1.058333 z m -3.19123,0.723522 c -0.13111,-0.341673 -0.0266,-0.446147 0.31503,-0.315035 0.558,0.214125 0.70333,0.826235 0.19617,0.826235 -0.17327,0 -0.40331,-0.23004 -0.5112,-0.5112 z m -7.19157,-1.958244 c 0,-0.873125 0.0688,-1.230313 0.15288,-0.79375 0.0841,0.436562 0.0841,1.150937 0,1.5875 -0.0841,0.436562 -0.15288,0.07937 -0.15288,-0.79375 z m 6.29911,0.740953 c -0.26618,-0.168616 -0.41185,-0.52295 -0.32369,-0.787408 0.11163,-0.334887 0.28906,-0.240193 0.58457,0.311977 0.46909,0.876489 0.44411,0.922012 -0.26088,0.475431 z m 8.8021,-0.94674 c 0.0169,-0.410966 0.10052,-0.494559 0.21314,-0.213137 0.1019,0.254661 0.0894,0.558932 -0.0279,0.676158 -0.11722,0.117224 -0.2006,-0.09113 -0.18528,-0.463021 z m -19.75556,-0.705556 c 0.0169,-0.410966 0.10052,-0.494559 0.21314,-0.213137 0.10191,0.254662 0.0894,0.558933 -0.0279,0.676158 -0.11723,0.117225 -0.20061,-0.09114 -0.18529,-0.463021 z m 8.27997,0.117593 c -0.33129,-1.068641 -0.42548,-2.38125 -0.17088,-2.38125 0.1529,0 0.33775,-0.277813 0.41078,-0.617362 0.073,-0.339548 0.12436,0.294496 0.11406,1.408987 -0.0188,2.036664 -0.10098,2.40566 -0.35396,1.589625 z m 3.33385,-0.772931 c 0,-0.667646 0.13002,-1.294262 0.28894,-1.392479 0.15892,-0.09822 0.21453,0.32845 0.12358,0.948151 -0.14844,1.011402 -0.1062,1.077621 0.41273,0.646952 0.31795,-0.263877 0.47594,-0.645067 0.35108,-0.847089 -0.13679,-0.221328 -0.0546,-0.260754 0.2068,-0.0992 0.31903,0.197171 0.22384,0.491623 -0.35976,1.11284 -0.43647,0.4646 -0.84528,0.844728 -0.90848,0.844728 -0.0632,0 -0.11489,-0.546256 -0.11489,-1.213903 z m 3.55563,-0.05022 c 0.0169,-0.410966 0.10052,-0.49456 0.21313,-0.213137 0.10191,0.254661 0.0894,0.558932 -0.0279,0.676157 -0.11722,0.117225 -0.2006,-0.09113 -0.18528,-0.46302 z m 4.58611,0 c 0.0169,-0.410966 0.10052,-0.49456 0.21314,-0.213137 0.1019,0.254661 0.0894,0.558932 -0.0279,0.676157 -0.11722,0.117225 -0.2006,-0.09113 -0.18528,-0.46302 z m -19.75556,-1.763889 c 0.0169,-0.410966 0.10052,-0.49456 0.21314,-0.213137 0.10191,0.254661 0.0894,0.558932 -0.0279,0.676157 -0.11723,0.117225 -0.20061,-0.09113 -0.18529,-0.46302 z m 4.55826,-1.146528 c 0,-1.002477 0.11907,-1.822809 0.26459,-1.822959 0.31575,-3.27e-4 0.27738,3.103674 -0.0423,3.423379 -0.12225,0.122246 -0.22227,-0.597944 -0.22227,-1.60042 z m 10.52569,-0.265797 c -0.0708,-0.889961 -0.007,-1.69308 0.14086,-1.784709 0.14826,-0.09163 0.26956,0.636522 0.26956,1.618112 0,2.226229 -0.2389,2.323203 -0.41042,0.166597 z m -9.64124,0.916597 c -0.1236,-0.199976 0.018,-0.259118 0.33195,-0.138646 0.61116,0.234524 0.72298,0.487383 0.21553,0.487383 -0.18257,0 -0.42894,-0.156932 -0.54748,-0.348737 z m -5.53299,-3.35543 c -0.11567,-0.388055 -0.32722,-1.023055 -0.47012,-1.411111 -0.22269,-0.604739 -0.17449,-0.591199 0.33736,0.09476 0.32845,0.440174 0.54,1.075174 0.47011,1.411111 -0.11021,0.529779 -0.15496,0.51721 -0.33735,-0.09476 z m 19.81799,-0.155569 c 0,-0.182577 0.15693,-0.428947 0.34874,-0.547489 0.19997,-0.123592 0.25911,0.01801 0.13864,0.331958 -0.23452,0.611158 -0.48738,0.722978 -0.48738,0.215531 z m -3.52887,-1.343736 c 0.46163,-0.630591 0.89444,-1.146528 0.96179,-1.146528 0.2679,0 -0.60678,1.323108 -1.18526,1.792902 -0.38109,0.309496 -0.29591,0.0631 0.22347,-0.646374 z m 2.40439,-0.68196 c 0.25466,-0.101907 0.55893,-0.08937 0.67616,0.02785 0.11722,0.117225 -0.0911,0.200604 -0.46302,0.185286 -0.41097,-0.01693 -0.49456,-0.100521 -0.21314,-0.213137 z m -8.69413,-2.481228 c -0.78784,-0.150032 -0.79675,-0.185452 -0.20991,-0.833903 0.66704,-0.73707 1.20907,-0.882517 1.20907,-0.324437 0,0.194027 -0.26846,0.352777 -0.59659,0.352777 -0.52023,0 -0.50894,0.0663 0.0882,0.517948 0.37664,0.284871 0.60542,0.501377 0.5084,0.481124 -0.097,-0.02025 -0.54664,-0.107331 -0.99916,-0.193509 z m -0.30087,-1.997297 c 0.10261,-0.267398 0.008,-0.664273 -0.2092,-0.881944 -0.2925,-0.292503 -0.19326,-0.395766 0.38034,-0.395766 0.42687,0 0.77612,0.06639 0.77612,0.147536 0,0.08114 0.10635,0.424687 0.23634,0.763427 0.16113,0.419907 0.105,0.534721 -0.17639,0.360811 -0.227,-0.140294 -0.41273,-0.08696 -0.41273,0.118517 0,0.205479 -0.17574,0.373598 -0.39052,0.373598 -0.21479,0 -0.30657,-0.218781 -0.20396,-0.486179 z"
         id="path1002" />
    </g>
  </g>
</svg>
